<svg width="3506" height="2190" viewBox="0 0 3506 2190" fill="none" xmlns="http://www.w3.org/2000/svg">
<g clip-path="url(#clip0_10_81)">
<path d="M1650.51 396.56C1604.85 442.22 1563.7 492.19 1527.66 545.77C1509.66 572.57 1492.99 600.193 1477.66 628.64C1462.33 657.087 1448.45 686.21 1436.02 716.01C1423.59 745.797 1412.62 776.15 1403.11 807.07C1393.6 837.99 1385.65 869.28 1379.24 900.94C1340.18 1092.64 1358.3 1291.58 1431.33 1473.07C1455.63 1533.37 1485.81 1591.14 1521.43 1645.53C1593.12 1754.84 1685.5 1849.06 1793.37 1922.9C1901.69 1997.04 2023.68 2048.85 2152.24 2075.33C2216.51 2088.6 2281.92 2095.52 2347.54 2095.98C2380.34 2096.2 2413.17 2094.79 2445.85 2091.77C2478.53 2088.75 2511.09 2084.14 2543.34 2077.91C2575.59 2071.68 2607.54 2063.91 2639.03 2054.49C2733.73 2026.29 2823.68 1984.07 2905.88 1929.24C2933.21 1910.97 2959.63 1891.4 2985.13 1870.51C3010.63 1849.62 3035 1827.53 3058.24 1804.24C3104.8 1757.68 3146.66 1706.67 3183.24 1651.92C3256.46 1542.17 3307.03 1418.9 3331.99 1289.35C3369.56 1094.79 3348.33 893.456 3270.99 711.02C3245.43 650.812 3213.94 593.296 3176.99 539.32C3103.14 431.441 3008.9 339.055 2899.57 267.37C2845.18 231.747 2787.4 201.571 2727.09 177.28C2696.99 165.14 2666.36 154.513 2635.19 145.4C2604.02 136.287 2572.52 128.707 2540.69 122.66C2413.14 98.4643 2282.1 99.3406 2154.88 125.24C2123.23 131.7 2091.94 139.67 2061.01 149.15C2030.08 158.63 1999.73 169.6 1969.95 182.06C1940.17 194.513 1911.05 208.397 1882.58 223.71C1854.11 239.023 1826.49 255.69 1799.72 273.71C1746.14 309.748 1696.17 350.89 1650.51 396.56ZM1650.51 396.56C1696.18 350.913 1746.22 309.863 1799.91 274C1853.6 238.171 1910.73 207.794 1970.46 183.32C2000.29 171.087 2030.67 160.367 2061.61 151.16C2092.55 141.953 2123.83 134.287 2155.46 128.16C2346.25 91.3167 2543.69 112.171 2722.57 188.06C2781.59 213.149 2837.96 244.041 2890.87 280.28C2996.64 352.708 3087.21 445.135 3157.47 552.35C3227.37 659.202 3275.54 778.774 3299.24 904.24C3334.97 1092.42 3314.71 1286.94 3240.99 1463.72C3228.78 1492.91 3215.18 1521.46 3200.18 1549.36C3185.18 1577.26 3168.85 1604.33 3151.18 1630.58C3115.84 1683.11 3075.51 1732.11 3030.75 1776.89C3008.37 1799.26 2984.96 1820.52 2960.51 1840.65C2936.06 1860.78 2910.73 1879.68 2884.51 1897.34C2831.96 1932.66 2776.08 1962.75 2717.66 1987.17C2688.46 1999.36 2658.71 2010.12 2628.4 2019.45C2598.09 2028.78 2567.43 2036.6 2536.4 2042.89C2505.36 2049.21 2474.05 2054.02 2442.48 2057.32C2410.91 2060.62 2379.26 2062.38 2347.54 2062.59C2187.49 2063.66 2029.63 2025.42 1887.81 1951.21C1746 1877.01 1624.58 1769.12 1534.22 1637.01C1461.51 1530.81 1410.69 1411.19 1384.71 1285.13C1358.54 1158.69 1357.67 1028.32 1382.16 901.54C1388.24 869.913 1395.91 838.63 1405.16 807.69C1414.41 776.75 1425.11 746.357 1437.24 716.51C1461.72 656.782 1492.1 599.648 1527.93 545.96C1563.8 492.267 1604.86 442.227 1650.51 396.56Z" fill="#E9D9BF"/>
<path d="M3306.63 1287.35C3286.73 1282.61 3266.98 1277.18 3247.49 1270.92C3228 1264.66 3208.75 1257.55 3189.93 1249.42C3171.07 1241.32 3152.72 1232.09 3134.99 1221.76C3117.21 1211.42 3100.27 1199.72 3084.3 1186.76C3068.29 1173.79 3053.56 1159.32 3040.3 1143.55C3027.06 1127.76 3015.62 1110.54 3006.19 1092.22C2996.79 1073.9 2989.57 1054.54 2984.69 1034.54C2974.98 994.515 2974.4 952.816 2983.02 912.54C2985.15 902.505 2988.02 892.642 2991.61 883.03C2993.41 878.195 2995.51 873.482 2997.92 868.92C2999.14 866.602 3000.52 864.373 3002.06 862.25C3002.87 861.146 3003.77 860.112 3004.75 859.16C3005.29 858.638 3005.89 858.179 3006.53 857.79C3007.32 857.277 3008.25 857.003 3009.19 857L3009.09 860.15C3008.76 860.193 3008.45 860.317 3008.18 860.51C3007.74 860.799 3007.33 861.135 3006.96 861.51C3006.14 862.344 3005.38 863.243 3004.7 864.2C3003.3 866.219 3002.03 868.33 3000.91 870.52C2998.65 874.986 2996.67 879.592 2995 884.31C2991.63 893.8 2988.96 903.522 2987 913.4C2979.15 953.05 2980.33 993.959 2990.46 1033.09C2995.53 1052.54 3002.85 1071.34 3012.28 1089.09C3021.72 1106.8 3033.09 1123.41 3046.2 1138.61C3059.32 1153.8 3073.87 1167.69 3089.63 1180.12C3105.41 1192.56 3122.12 1203.75 3139.63 1213.61C3157.16 1223.49 3175.27 1232.29 3193.87 1239.97C3231.07 1255.41 3269.87 1266.97 3309.23 1275.81L3306.63 1287.35Z" fill="#EBDDC6"/>
<path d="M2976.6 993.61L2981.42 993.27C2981.42 993.27 2981.78 990.83 2981.98 986.57C2983.24 958.5 2977.24 851.04 2812.24 836.15C2629.19 819.65 2637.71 747.96 2638.59 742.69C2636.5 752.96 2584.71 1020.55 2976.6 993.61Z" fill="#C0884F"/>
<path d="M2927.41 947.91C2958.48 969.36 2972.68 987.91 2976.6 993.61L2981.42 993.27C2981.42 993.27 2981.78 990.83 2981.98 986.57C2976.15 978.65 2961.51 961.3 2932.84 941.39C2897.66 916.98 2727.35 869.11 2727.35 869.11C2727.35 869.11 2892.96 924.12 2927.41 947.91Z" fill="#CCA270"/>
<path d="M3345.23 1028.4C3326.17 1022.91 3305.11 1014.4 3281.89 1002.15C3134.49 924.146 3025.79 1097.8 3025.79 1097.8C3013.32 1185.79 3132.22 981.986 3345.23 1028.4Z" fill="#945C3A"/>
<path d="M3025.05 1098.01C3025.28 1097.65 3029 1091.78 3035.8 1082.84C3066.66 1042.3 3161.06 938.84 3281.15 1002.38C3304.36 1014.66 3325.42 1023.14 3344.49 1028.63C3464.24 1063.15 3505.24 979.59 3505.24 979.59C3175.24 722.35 3061.37 978.21 3032.92 1068.87C3027.53 1086 3025.24 1097.24 3025.05 1098.01Z" fill="#C0884F"/>
<path d="M3025.05 1098.01C3025.28 1097.65 3029 1091.78 3035.8 1082.84C3043.51 1065.45 3052.46 1048.64 3062.6 1032.55C3083.13 1000.11 3117.67 957.31 3165.65 937.73C3208.6 920.2 3255.65 923.73 3305.39 948.32L3361.13 972.05L3309.13 940.74C3257.08 915.07 3207.72 911.43 3162.43 929.93C3112.33 950.39 3076.55 994.67 3055.35 1028.22C3047.1 1041.32 3039.61 1054.89 3032.92 1068.85C3027.53 1086 3025.24 1097.24 3025.05 1098.01Z" fill="#CCA270"/>
<path d="M1735.9 507.13C1823.9 507.13 1895.47 435.54 1895.47 347.56C1895.47 259.58 1823.89 187.99 1735.9 187.99C1647.91 187.99 1576.33 259.57 1576.33 347.56C1576.33 435.55 1647.91 507.13 1735.9 507.13ZM1735.9 194.13C1820.49 194.13 1889.31 262.95 1889.31 347.54C1889.31 432.13 1820.49 500.95 1735.9 500.95C1651.31 500.95 1582.49 432.13 1582.49 347.54C1582.49 262.95 1651.31 194.15 1735.9 194.15V194.13Z" fill="#E9D9BF"/>
<path d="M1735.9 242.24C1738.35 242.24 1740.7 243.212 1742.43 244.943C1744.16 246.673 1745.14 249.021 1745.14 251.47V349.09L1790.24 394.24C1791.75 396.011 1792.54 398.288 1792.45 400.616C1792.36 402.944 1791.39 405.151 1789.74 406.794C1788.09 408.438 1785.87 409.397 1783.55 409.48C1781.22 409.562 1778.94 408.762 1777.18 407.24L1726.71 356.77H1726.66V251.48C1726.66 250.267 1726.9 249.065 1727.36 247.944C1727.83 246.823 1728.51 245.804 1729.37 244.946C1730.22 244.088 1731.24 243.408 1732.36 242.943C1733.49 242.479 1734.69 242.24 1735.9 242.24Z" fill="#E9D9BF"/>
<path d="M1735.9 150.48C1844.57 150.48 1932.97 238.89 1932.97 347.56C1932.97 456.23 1844.57 544.63 1735.9 544.63C1627.23 544.63 1538.82 456.23 1538.82 347.56C1538.82 238.89 1627.24 150.48 1735.9 150.48ZM1726.66 519.75V476.89H1745.14V519.75C1832.88 515.09 1903.43 444.54 1908.14 356.8H1865.24V338.32H1908.1C1903.44 250.57 1832.89 180.02 1745.1 175.37V218.24H1726.62V175.37C1638.87 180.02 1568.32 250.57 1563.67 338.37H1606.53V356.85H1563.67C1568.36 444.54 1638.91 515.09 1726.66 519.75Z" fill="#E9D9BF"/>
<path d="M2296.82 230.45C2285.34 230.45 2276.03 221.142 2276.03 209.66C2276.03 198.178 2285.34 188.87 2296.82 188.87C2308.3 188.87 2317.61 198.178 2317.61 209.66C2317.61 221.142 2308.3 230.45 2296.82 230.45Z" fill="#E9D9BF"/>
<path d="M1041.14 1023.78C1033.02 1023.78 1026.44 1017.2 1026.44 1009.08C1026.44 1000.96 1033.02 994.38 1041.14 994.38C1049.26 994.38 1055.84 1000.96 1055.84 1009.08C1055.84 1017.2 1049.26 1023.78 1041.14 1023.78Z" fill="#E9D9BF"/>
<path d="M1026.77 148.02C1018.65 148.02 1012.07 141.439 1012.07 133.32C1012.07 125.201 1018.65 118.62 1026.77 118.62C1034.89 118.62 1041.47 125.201 1041.47 133.32C1041.47 141.439 1034.89 148.02 1026.77 148.02Z" fill="#E9D9BF"/>
<path d="M1143.77 48.0773C1136.24 30.599 1144.3 10.325 1161.78 2.79404C1179.26 -4.73693 1199.53 3.32696 1207.06 20.8053C1214.59 38.2836 1206.53 58.5576 1189.05 66.0885C1171.57 73.6195 1151.3 65.5556 1143.77 48.0773Z" fill="#E9D9BF"/>
<path d="M2917.88 402.595C2913.57 384.058 2925.1 365.536 2943.64 361.226C2962.18 356.915 2980.7 368.449 2985.01 386.986C2989.32 405.523 2977.79 424.045 2959.25 428.355C2940.71 432.665 2922.19 421.132 2917.88 402.595Z" fill="#E9D9BF"/>
<path d="M855.55 701.038C844.732 697.19 839.082 685.301 842.929 674.483C846.777 663.665 858.666 658.014 869.484 661.862C880.302 665.71 885.953 677.599 882.105 688.417C878.257 699.235 866.368 704.886 855.55 701.038Z" fill="#E9D9BF"/>
<path d="M526.721 1008.33C526.721 1008.33 466.981 901.22 445.721 934.51C424.461 967.8 526.721 1008.33 526.721 1008.33Z" fill="#E9D9BF"/>
<path d="M527.87 1021.9C527.87 1021.9 489.64 1014.9 497.02 1033.04C504.4 1051.18 527.87 1021.9 527.87 1021.9Z" fill="#E9D9BF"/>
<path d="M3116.1 811.13C3116.1 811.13 3179 705.84 3199.27 739.76C3219.54 773.68 3116.1 811.13 3116.1 811.13Z" fill="#E9D9BF"/>
<path d="M3114.54 824.66C3114.54 824.66 3152.97 818.78 3145.05 836.72C3137.13 854.66 3114.54 824.66 3114.54 824.66Z" fill="#E9D9BF"/>
<path d="M329.24 171.27C317.758 171.27 308.45 161.962 308.45 150.48C308.45 138.998 317.758 129.69 329.24 129.69C340.722 129.69 350.03 138.998 350.03 150.48C350.03 161.962 340.722 171.27 329.24 171.27Z" fill="#E9D9BF"/>
<path d="M3405.34 300.45C3393.86 300.45 3384.55 291.142 3384.55 279.66C3384.55 268.178 3393.86 258.87 3405.34 258.87C3416.82 258.87 3426.13 268.178 3426.13 279.66C3426.13 291.142 3416.82 300.45 3405.34 300.45Z" fill="#E9D9BF"/>
<path d="M3027.81 2095.29H0.000488281L443.99 1950.23H3401.81L3027.81 2095.29Z" fill="#CCA270"/>
<path d="M3028.65 2189.33L-0.00976562 2189.33L-0.00976562 2095.3L3028.65 2095.3V2189.33Z" fill="url(#paint0_linear_10_81)"/>
<path d="M3028.65 2189.32L3401.4 2036.33L3401.81 1950.23L3028.65 2095.29V2189.32Z" fill="url(#paint1_linear_10_81)"/>
<path d="M2715.92 1963.35L2628.91 2059.24H2245.57L2226.2 2035.77H2611.34L2715.92 1963.35Z" fill="#784B34"/>
<path d="M2226.2 2035.77H2611.34L2715.92 1963.35H2330.77L2226.2 2035.77Z" fill="#FAF7F2"/>
<path d="M1864.71 1809.04L1903.63 1942.41C1937.42 1939.07 1970.7 1942.21 1998.9 1927.2C2032.39 1910.46 2017.51 1881.2 2017.05 1880.36C2049.23 1860.21 2148.48 1787.85 2152.73 1784.36L2155.42 1782.14C2158.93 1779.23 2162.34 1776.35 2165.65 1773.5L2167.2 1772.16C2172.45 1767.61 2177.42 1763.15 2182.11 1758.79C2182.87 1758.09 2183.62 1757.39 2184.36 1756.68C2189.8 1751.55 2194.81 1746.58 2199.36 1741.78L2200.47 1740.6C2202.68 1738.24 2204.76 1735.93 2206.72 1733.67L2207.72 1732.54C2208.37 1731.79 2208.99 1731.05 2209.6 1730.31C2209.91 1729.95 2210.21 1729.58 2210.51 1729.21C2211 1728.62 2211.51 1728.03 2211.93 1727.45C2215.02 1658.91 2211.93 1589.06 2198.78 1523.31C2198.78 1523.31 2193.5 1509.81 2186.98 1489.61L2182.48 1495.27C2088.39 1614.11 2020.17 1705.96 1953.82 1777.27L1888.16 1787.27L1864.71 1809.04Z" fill="#FCD7CC"/>
<path d="M1897.24 1920.49L1903.63 1942.41C1937.42 1939.07 1970.7 1942.21 1998.9 1927.2C2032.39 1910.46 2017.51 1881.2 2017.05 1880.36C2049.23 1860.21 2148.48 1787.85 2152.73 1784.36L2155.42 1782.14C2158.93 1779.23 2162.34 1776.35 2165.65 1773.5L2167.2 1772.16C2172.45 1767.61 2177.42 1763.15 2182.11 1758.79C2182.87 1758.09 2183.62 1757.39 2184.36 1756.68C2189.8 1751.55 2194.81 1746.58 2199.36 1741.78L2200.47 1740.6C2202.68 1738.24 2204.76 1735.93 2206.72 1733.67L2207.72 1732.54C2208.37 1731.79 2208.99 1731.05 2209.6 1730.31C2209.91 1729.95 2210.21 1729.58 2210.51 1729.21C2211 1728.62 2211.51 1728.03 2211.93 1727.45C2215.02 1658.91 2211.93 1589.06 2198.78 1523.31C2198.78 1523.31 2193.5 1509.81 2186.98 1489.61L2182.48 1495.27C2182.48 1495.27 2200.96 1631.59 2165.02 1722.27C2114.29 1816.35 2004.5 1859.87 2004.5 1859.87L1988.7 1834.12C1989.07 1835.26 2007.02 1890.29 1988.7 1902.12C1970.1 1914.09 1897.24 1920.49 1897.24 1920.49Z" fill="#F9BEAC"/>
<path d="M2182.42 1950.24H2800.42C2785.21 1872.11 2767.69 1791.71 2750.31 1726.13C2750.31 1726.17 2750.31 1726.2 2750.31 1726.24C2766.56 1767.59 2816.19 1813.11 2890.63 1822.97C2918.8 1822.97 2959.14 1813.31 2964.34 1782.27C2964.34 1782.27 3004.9 1594.2 2940.23 1362.87C2920.84 1260.65 2841.9 1143.53 2818.9 1135.66C2700.27 1094.52 2578.05 1071.56 2578.05 1071.56L2365.47 1071.35C2365.47 1071.35 2295.2 1082.81 2273.91 1099.35C2233.38 1169.68 2173.97 1303.18 2164.96 1343.65C2151.87 1403.55 2198.72 1523.3 2198.72 1523.3C2226.92 1664.55 2208.92 1824.76 2182.42 1950.24Z" fill="#FAF7F2"/>
<path d="M2578.45 1071.4C2578.45 1071.4 2773.66 1113.67 2819.31 1135.5C2863.98 1159.37 2938.31 1347.74 2938.31 1347.74C2941.97 1348.53 2937.31 1201.87 2861.31 1119.23C2901.64 1164.47 2952.23 1173.38 2952.23 1173.38C2659.78 1014.38 2817.87 436.689 2572.6 497.459C2432.39 493.159 2349.41 540.579 2311.88 594.809C2311.21 595.809 2392.36 620.539 2430.36 674.539C2392.48 629.299 2308.42 600.019 2307.71 601.169C2307.71 601.169 2204.14 582.809 2176.31 694.579C2143.48 808.649 2195.61 866.119 2192.84 1007.41C2202.84 1096.17 2289.91 1225.41 2278.45 1310.55C2333.54 1307.55 2367.04 1132.63 2365.93 1071.19L2578.45 1071.4Z" fill="#3A3A3A"/>
<path d="M2283.72 913.9C2283.72 913.9 2332.22 1015.8 2348.72 1024.9C2365.22 1034 2390.21 1022.65 2390.21 1022.65L2381.91 1086.57C2381.91 1086.57 2435.83 1181.84 2457.55 1179.39C2460.08 1179.11 2463.64 1177.39 2467.97 1174.69C2500.91 1153.86 2578.07 1071.52 2578.07 1071.52C2582.6 1025.14 2575.84 971.11 2596.97 906.8C2607.28 875.43 2601.42 843.23 2599.42 815.61C2597.06 782.91 2532.03 815.06 2509.49 886.67C2499.74 885.22 2489.91 870.04 2479.95 850.23C2471.54 833.49 2463.03 813.45 2454.41 795.58C2452.24 791.09 2388.68 758.81 2386.08 744.83C2395.99 751.23 2438.59 766.53 2436.47 763.03C2431.47 754.75 2431.37 756.37 2426.24 752.37C2380.24 741.29 2326.95 678.72 2288.51 682.02C2289.01 694.67 2289.06 706.68 2288.79 718.13C2286.81 801.51 2268.09 855.38 2283.72 913.9Z" fill="#FCD7CC"/>
<path d="M2573.24 821.17C2573.24 821.17 2607.39 857.46 2562.89 894.17C2578.24 857.4 2560.18 815.93 2573.24 821.17Z" fill="#F9BEAC"/>
<path d="M2453.24 808.86C2455.69 830.64 2479.96 850.27 2479.96 850.27C2471.55 833.53 2463.04 813.49 2454.42 795.62C2452.25 791.13 2388.69 758.85 2386.09 744.87C2396 751.27 2438.6 766.57 2436.48 763.07C2431.48 754.79 2431.38 756.41 2426.25 752.41C2380.25 741.33 2326.96 678.76 2288.52 682.06C2289.02 694.71 2289.07 706.72 2288.8 718.17C2306.68 678.49 2393.61 762.85 2453.24 808.86Z" fill="#F9BEAC"/>
<path d="M2381.89 1086.61C2381.89 1086.61 2435.81 1181.88 2457.53 1179.43C2460.06 1179.15 2463.62 1177.43 2467.95 1174.73C2417.32 1151.37 2411.8 1074.48 2413.65 1073.64C2458.79 1053.07 2539.45 1007.9 2570.22 936.99C2544.52 971.51 2390.22 1022.68 2390.22 1022.68L2381.89 1086.61Z" fill="#F9BEAC"/>
<path d="M2342.24 1197.33C2342.24 1197.33 2370.77 1254.63 2464.24 1216.85C2557.71 1179.07 2386.9 1296.84 2342.24 1197.33Z" fill="#CCA270"/>
<path d="M2182.42 1950.24H2201.89C2231.05 1841.97 2222.89 1704.24 2342.21 1710.18C2440.21 1710.55 2517.03 1830.96 2592.07 1950.24H2800.38C2791.38 1904.15 2781.63 1857.24 2771.55 1813.11C2764.61 1782.68 2757.55 1753.54 2750.46 1726.84L2750.28 1726.16C2750.28 1726.16 2750.28 1726.16 2750.28 1726.24C2766.53 1767.59 2820.35 1804.08 2820.35 1804.08C2820.35 1804.08 2865.47 1822.34 2905.35 1822.37C2900.18 1807.47 2778.18 1806.71 2748.87 1711.11L2748.75 1710.72C2743.28 1653.45 2724.05 1450.99 2715.59 1347.91C2695.49 1388.2 2657.48 1413.71 2625.82 1437.42C2597 1459 2573.45 1479.1 2573.45 1507.48C2517.79 1565 2374 1547.48 2323.83 1518.57C2317.2 1514.74 2434.19 1586.47 2426.99 1585.57C2418.38 1584.46 2274.82 1529.04 2266.92 1527.65C2215.29 1518.57 2198.7 1523.3 2198.7 1523.3C2226.92 1664.55 2208.92 1824.76 2182.42 1950.24Z" fill="url(#paint2_linear_10_81)"/>
<path d="M2625.84 1437.43C2687.84 1566.2 2602.84 1776.2 2771.55 1813.11L2750.46 1726.84L2750.31 1726.24L2748.92 1711.1L2715.64 1347.9C2695.54 1388.19 2657.53 1413.7 2625.87 1437.41L2625.84 1437.43Z" fill="#E7D4B9"/>
<path d="M2247.41 1219L2331.13 1236.47C2343.51 1239.05 2356.13 1228.77 2359.31 1213.47C2396.69 1135.01 2429.5 1058.75 2418.71 1003.53C2357.21 984.53 2270.39 971.01 2260.24 979.79C2227.7 1027.92 2227.32 1100.62 2230.75 1186.65C2227.57 1201.95 2235.02 1216.42 2247.41 1219Z" fill="#DABF97"/>
<path d="M2401.06 1013.45C2401.06 1013.45 2414.54 1087.52 2375.63 1146.45C2346.31 1190.83 2348.21 1217.9 2337.7 1221.29C2327.19 1224.68 2260.15 1209.16 2246.49 1201.71C2246.49 1201.71 2313.85 1216.56 2326.11 1211.92C2338.37 1207.28 2350.05 1157.79 2364.11 1139C2394.86 1098.01 2394.24 1052.44 2401.06 1013.45Z" fill="#784B34"/>
<path d="M2356.71 1221.24C2358.25 1220.24 2397.15 1195.8 2432.82 1164.47C2483.64 1119.82 2505.04 1085.57 2498.25 1059.77C2493.85 1043.02 2484.89 1031 2471.64 1024.03C2452.64 1014.03 2430.13 1017.72 2419.33 1020.45C2415.64 1021.38 2419.27 1039.85 2419.27 1039.85C2419.52 1039.76 2444.87 1030.95 2463.04 1040.56C2471.56 1045.06 2477.19 1052.89 2480.24 1064.56C2484.79 1081.83 2463.07 1113.12 2420.65 1150.41C2401.24 1167.48 2381.12 1182.69 2367.09 1192.83C2356.04 1200.8 2356.71 1221.24 2356.71 1221.24Z" fill="#3A3A3A"/>
<path d="M2435.14 1193.07H2435.21L2525 1240.8C2525 1240.8 2589 1355.4 2621.72 1469.41C2654.25 1582.81 2699.43 1782.41 2796.54 1822.94L2798.04 1823.56H2798.1C2852.19 1836.62 2876.92 1838.56 2896.62 1808.56C2916.32 1778.56 2896.62 1645.95 2896.62 1645.95C2861.91 1459.75 2674.99 1331.56 2655.62 1210.07L2571.74 1080.07L2470.59 1067.07C2469.59 1067.75 2467.82 1067.97 2465.54 1067.96C2462.22 1069.02 2459.05 1070.5 2456.11 1072.37C2452.93 1074.37 2449.89 1080.37 2448.81 1084.83C2446.73 1093.59 2448.1 1095.07 2450.51 1095.83L2436.62 1101.21C2436.62 1101.21 2430.41 1112.28 2429.53 1122.35L2429.58 1133.11C2429.21 1133.19 2434.64 1138.37 2434.47 1138.48C2421.22 1147.15 2428.86 1165.77 2428.86 1165.77C2420.31 1179.69 2431.51 1188.74 2435.14 1193.07Z" fill="#FCD7CC"/>
<path d="M2435.24 1193.1L2525.03 1240.83C2525.03 1240.83 2589.03 1355.43 2621.75 1469.44C2654.28 1582.84 2699.46 1782.44 2796.57 1822.97C2789.37 1819.47 2758.92 1798.72 2732.67 1690.97C2702.67 1567.78 2703.45 1572.79 2665.59 1492.63C2627.73 1412.47 2583.23 1358.74 2559.34 1257.93C2558.77 1255.53 2577.08 1245.01 2602.34 1241.54C2584.76 1242.76 2555.14 1244.09 2543.59 1240.45C2526.9 1235.15 2437.98 1194.37 2435.24 1193.1Z" fill="#F9BEAC"/>
<path d="M2428.86 1165.82L2450.93 1172.94L2432.78 1162.17C2429.06 1155.17 2431.62 1147.17 2438.84 1139.46C2438.84 1139.46 2463.54 1145.07 2465.08 1145.46L2436.87 1130.33C2436.64 1121.61 2436.29 1112.59 2447.1 1102.94L2493.56 1107.18L2459.24 1092.24C2457.4 1083.79 2462.51 1075.45 2470.55 1067.14C2468.83 1067.17 2467.13 1067.47 2465.5 1068.03C2462.18 1069.09 2459.01 1070.57 2456.07 1072.44C2452.89 1074.44 2449.85 1080.44 2448.77 1084.9C2446.69 1093.66 2448.06 1095.14 2450.47 1095.9L2436.58 1101.28C2436.58 1101.28 2430.37 1112.35 2429.49 1122.42L2429.54 1133.18C2429.17 1133.26 2434.6 1138.44 2434.43 1138.55C2421.24 1147.24 2428.86 1165.82 2428.86 1165.82Z" fill="#F9BEAC"/>
<path d="M2298.57 1950.24C2298.57 1950.24 2174.11 2043.1 2156.11 2043.1C2138.11 2043.1 1041.11 2033.1 1041.11 2033.1L1178.02 1950.24H2298.57Z" fill="#784B34"/>
<path d="M2164.96 1942.4C2164.96 1942.4 2143.5 2012.66 2104.7 2012.66H1866.87L1206.71 2000.36C1187.63 2000.36 1170.85 1988.19 1165.5 1970.48L1003.3 1433.04L975.391 1340.55C967.391 1313.99 987.981 1287.44 1016.59 1287.44L1039.98 1287L1676.75 1275.13C1686.04 1275.13 1695.08 1278.14 1702.51 1283.71C1709.94 1289.28 1715.36 1297.11 1717.96 1306.03L1903.61 1942.4H2164.96Z" fill="url(#paint3_linear_10_81)"/>
<path d="M1814.9 1972.02C1814.9 1972.02 1235.4 1979.78 1207.4 1957.74C1179.4 1935.7 1040.13 1449.9 1040.13 1449.9C1040.13 1449.9 1184.13 1906.81 1234.53 1937.16C1318.53 1961.16 1814.9 1972.02 1814.9 1972.02Z" fill="#784B34"/>
<path d="M1029.95 1336.01C1029.95 1336.01 1422.13 1354.5 1634.87 1315.66C1634.87 1315.66 918.96 1323.06 1029.95 1336.01Z" fill="white"/>
<path d="M1406.53 1659.41C1393.09 1659.42 1380.12 1654.47 1370.09 1645.51C1360.07 1636.55 1353.71 1624.22 1352.21 1610.86C1350.72 1597.5 1354.21 1584.06 1362 1573.11C1369.8 1562.16 1381.36 1554.47 1394.47 1551.51C1377.38 1548.36 1359.73 1550.76 1344.11 1558.35C1328.48 1565.94 1315.69 1578.34 1307.6 1593.72C1299.52 1609.1 1296.57 1626.66 1299.18 1643.84C1301.78 1661.02 1309.82 1676.92 1322.11 1689.2C1334.39 1701.49 1350.29 1709.53 1367.47 1712.14C1384.65 1714.75 1402.21 1711.79 1417.59 1703.71C1432.97 1695.63 1445.37 1682.83 1452.96 1667.21C1460.56 1651.58 1462.95 1633.93 1459.8 1616.84C1457.06 1628.92 1450.3 1639.72 1440.62 1647.45C1430.94 1655.19 1418.92 1659.41 1406.53 1659.41Z" fill="white"/>
<path d="M511.781 1950.24C511.781 1950.24 472.661 1973.38 514.661 1994.38C546.161 2010.13 747.441 2023.38 827.901 1994.45C854.721 1984.81 849.241 1970.86 844.741 1950.24H511.781Z" fill="#784B34"/>
<path d="M816.32 1976.76C748.4 1999.33 582.4 2001.33 532.66 1976.76L489.49 1648.46C496.23 1635.32 722.26 1625.19 859.49 1648.46C824.62 1656.26 653.71 1655.15 529.73 1655.33C627.84 1663.2 742.3 1663.33 856.4 1659.33L816.32 1976.76Z" fill="url(#paint4_linear_10_81)"/>
<path d="M748.761 1427.6C725.031 1436.52 704.761 1449.29 688.601 1465.6C676.513 1477.62 666.759 1491.78 659.831 1507.36C648.41 1470.3 630.948 1435.39 608.151 1404.02C576.451 1360.02 533.701 1320.76 481.091 1287.16L312.401 1208.04L475.711 1295.59C568.711 1354.96 615.661 1423.5 639.291 1479.92C488.401 1452.04 334.531 1513.25 336.561 1511.45C488.051 1476.95 627.061 1475.04 643.651 1490.13C647.121 1499.52 650.751 1511.37 653.051 1519.84C671.141 1586.3 661.59 1635.9 661.5 1636.39H671.711C672.121 1634.39 680.801 1589.47 664.491 1524.13C665.701 1519.47 672.781 1495.51 696.131 1472.27C711.621 1456.84 731.131 1444.86 754.061 1436.51C782.001 1426.34 933.061 1326.76 933.061 1326.76C890.401 1351.99 778.191 1416.54 748.761 1427.6Z" fill="#CCA270"/>
<path d="M520.551 1331.01C339.381 1295.2 161.761 1303.25 180.921 1112.42C175.011 1257.08 360.691 1252.97 520.551 1331.01Z" fill="#945C3A"/>
<path d="M520.561 1331.01C525.341 1333.34 530.097 1335.75 534.831 1338.25C537.497 1339.63 540.141 1341.05 542.761 1342.5C542.187 1337.99 541.581 1333.62 540.941 1329.41C507.061 1107.04 373.571 1273.06 191.071 1055.66C186.359 1074.32 182.971 1093.29 180.931 1112.42C175.021 1257.08 360.701 1252.97 520.561 1331.01Z" fill="#C0884F"/>
<path d="M254.491 1167.74C257.161 1169.51 338.401 1222.89 422.261 1251.92C485.951 1273.92 524.051 1321.53 534.831 1338.25C537.497 1339.63 540.141 1341.05 542.761 1342.5C542.187 1337.99 541.581 1333.62 540.941 1329.41C533.476 1318.84 525.111 1308.94 515.941 1299.81C497.781 1281.64 467.361 1256.94 425.581 1242.48C354.051 1217.73 257.491 1169.24 254.491 1167.74Z" fill="#CCA270"/>
<path d="M191.4 1053.33C186.689 1071.99 183.301 1090.95 181.26 1110.09C181.94 1093.29 185.24 1074.49 191.4 1053.33Z" fill="#17D5AD"/>
<path d="M717.551 1449.9C722.157 1448.79 726.794 1447.76 731.461 1446.81C863.081 1419.9 1011.87 1451.7 1041.14 1232.16C944.221 1208.32 746.301 1284.9 718.591 1443.4C718.211 1445.55 717.864 1447.71 717.551 1449.9Z" fill="#C0884F"/>
<path d="M717.551 1449.9C722.157 1448.79 726.794 1447.76 731.461 1446.81C774.901 1409 966.721 1285.96 973.461 1281.32C966.191 1285.95 755.581 1411 718.601 1443.4C718.214 1445.55 717.864 1447.71 717.551 1449.9Z" fill="#CCA270"/>
<path d="M631.68 1486.37C631.68 1486.37 647.68 1487.74 648.19 1487.91C627.02 1485.51 591.42 1488.91 435.56 1545.91C321.62 1591.23 274.74 1587.37 264.04 1585.46C331.83 1571.24 474.69 1475.49 631.68 1486.37Z" fill="#945C3A"/>
<path d="M264.04 1585.45C329.15 1571.78 463.52 1482.93 613.14 1485.57C619.294 1485.68 625.474 1485.95 631.68 1486.37C637.16 1486.75 642.664 1487.26 648.19 1487.91C648.6 1487.91 648.63 1487.81 648.3 1487.48C647.3 1486.48 642.67 1483.66 635.17 1479.76C571.57 1446.76 299.17 1334.67 222.7 1549.28C221.19 1583.47 236.36 1591.24 264.04 1585.45Z" fill="#C0884F"/>
<path d="M299.861 1515.11C300.951 1514.68 370.861 1486.76 407.601 1480.38C447.891 1473.38 488.361 1472.89 521.781 1474.67C552.434 1476.37 582.948 1480.01 613.141 1485.57C619.294 1485.68 625.474 1485.95 631.681 1486.37C637.161 1486.75 642.664 1487.26 648.191 1487.91L648.301 1487.48C647.301 1486.48 642.671 1483.66 635.171 1479.76C597.993 1471.85 560.261 1466.81 522.311 1464.69C480.681 1462.46 442.051 1464.3 407.491 1470.15C364.381 1477.44 300.851 1514.53 299.861 1515.11Z" fill="#CCA270"/>
<path d="M827.9 1689.33C827.9 1689.33 807.9 1953.33 793.9 1965.33C779.9 1977.33 635.9 1987.33 561.9 1967.33C561.9 1967.33 771.4 1967.33 780.4 1954.83C792.56 1929.99 827.9 1689.33 827.9 1689.33Z" fill="white"/>
</g>
<defs>
<linearGradient id="paint0_linear_10_81" x1="1514.32" y1="2189.33" x2="1514.32" y2="2095.29" gradientUnits="userSpaceOnUse">
<stop stop-color="white"/>
<stop offset="1" stop-color="#DABF97"/>
</linearGradient>
<linearGradient id="paint1_linear_10_81" x1="3232.62" y1="2134.67" x2="3197.84" y2="2004.88" gradientUnits="userSpaceOnUse">
<stop stop-color="white"/>
<stop offset="1" stop-color="#DABF97"/>
</linearGradient>
<linearGradient id="paint2_linear_10_81" x1="2850.2" y1="2032.41" x2="2410.88" y2="1612.62" gradientUnits="userSpaceOnUse">
<stop stop-color="white"/>
<stop offset="1" stop-color="#CCA270"/>
</linearGradient>
<linearGradient id="paint3_linear_10_81" x1="1569.31" y1="2266.76" x2="1569.31" y2="1355.21" gradientUnits="userSpaceOnUse">
<stop stop-color="white"/>
<stop offset="0.0001" stop-color="#FAF7F2"/>
<stop offset="0.241135" stop-color="#F4EDE0"/>
<stop offset="0.477721" stop-color="#E9D9BF"/>
<stop offset="0.652588" stop-color="#E7D6BB"/>
<stop offset="0.94" stop-color="#CCA270"/>
<stop offset="1" stop-color="#CCA270"/>
</linearGradient>
<linearGradient id="paint4_linear_10_81" x1="674.49" y1="2118.44" x2="674.49" y2="1673.63" gradientUnits="userSpaceOnUse">
<stop stop-color="white"/>
<stop offset="0.0001" stop-color="#FAF7F2"/>
<stop offset="0.58" stop-color="#F4EDE0"/>
<stop offset="0.72" stop-color="#E9D9BF"/>
<stop offset="0.83" stop-color="#DABF97"/>
<stop offset="0.94" stop-color="#CCA270"/>
<stop offset="1" stop-color="#CCA270"/>
</linearGradient>
<clipPath id="clip0_10_81">
<rect width="3505.23" height="2189.32" fill="white" transform="matrix(-1 0 0 1 3505.23 0)"/>
</clipPath>
</defs>
</svg>
