<svg width="560" height="470" viewBox="0 0 560 470" fill="none" xmlns="http://www.w3.org/2000/svg">
<g clip-path="url(#clip0_24_1876)">
<path d="M353.972 2.59216C291.613 14.4074 259.871 81.8827 159.64 141.988C59.4092 202.094 76.8546 405.057 239.779 398.583C395.236 392.332 404.742 389.915 496.714 368.313C617.204 339.954 550.89 -34.5842 353.972 2.59216Z" fill="#FAF7F2"/>
<path d="M560.154 452.259C560.154 442.458 462.813 434.521 342.657 434.521Z" fill="#FAEFDE"/>
<path d="M342.672 434.521C222.517 434.521 125.176 442.458 125.176 452.259C125.176 462.061 222.517 469.997 342.672 469.997C462.828 469.997 560.169 462.061 560.169 452.259" fill="#FAF7F2"/>
<path d="M272.632 59.6699H120.4C107.808 59.6699 97.6006 69.6819 97.6006 82.0324V288.233C97.6006 300.583 107.808 310.595 120.4 310.595H272.632C285.224 310.595 295.431 300.583 295.431 288.233V82.0324C295.431 69.6819 285.224 59.6699 272.632 59.6699Z" fill="#E9D9BF"/>
<path d="M264.115 82.4355H128.902C122.257 82.4355 116.871 87.7187 116.871 94.2359V283.787C116.871 290.305 122.257 295.588 128.902 295.588H264.115C270.759 295.588 276.145 290.305 276.145 283.787V94.2359C276.145 87.7187 270.759 82.4355 264.115 82.4355Z" fill="#FAF7F2"/>
<path d="M120.597 130.905H86.6191V129.622H120.065L137.951 112.078H159.868V113.361H138.484L120.597 130.905Z" fill="#CCA270"/>
<path d="M120.597 166.618H86.6191V165.335H120.065L137.951 147.791H159.868V149.074H138.484L120.597 166.618Z" fill="#CCA270"/>
<path d="M206.805 219.191C206.808 220.631 206.376 222.04 205.562 223.24C204.748 224.439 203.59 225.374 202.234 225.928C200.878 226.481 199.385 226.627 197.945 226.348C196.504 226.069 195.18 225.377 194.14 224.359C193.101 223.341 192.392 222.044 192.105 220.632C191.817 219.219 191.963 217.755 192.524 216.423C193.086 215.092 194.037 213.954 195.258 213.154C196.479 212.353 197.915 211.926 199.383 211.926C201.349 211.926 203.235 212.691 204.626 214.053C206.018 215.415 206.801 217.263 206.805 219.191Z" fill="#CCA270"/>
<path d="M212.752 242.895V256.724C208.531 258.602 203.949 259.573 199.314 259.573C194.679 259.573 190.098 258.602 185.877 256.724V242.895C185.816 241.127 186.119 239.365 186.767 237.714C187.415 236.063 188.395 234.556 189.649 233.284C190.902 232.013 192.404 231.001 194.065 230.31C195.725 229.62 197.511 229.264 199.314 229.264C201.118 229.264 202.903 229.62 204.564 230.31C206.224 231.001 207.726 232.013 208.98 233.284C210.234 234.556 211.214 236.063 211.862 237.714C212.51 239.365 212.813 241.127 212.752 242.895Z" fill="#613F2D"/>
<path d="M199.322 260.44C194.553 260.432 189.843 259.414 185.512 257.456C178.545 254.362 172.869 249.02 169.429 242.32C165.989 235.62 164.993 227.966 166.607 220.633C168.221 213.301 172.347 206.731 178.298 202.02C184.249 197.308 191.666 194.738 199.315 194.738C206.963 194.738 214.38 197.308 220.331 202.02C226.282 206.731 230.408 213.301 232.022 220.633C233.636 227.966 232.64 235.62 229.2 242.32C225.76 249.02 220.084 254.362 213.117 257.456C208.792 259.416 204.086 260.434 199.322 260.44ZM199.322 196.649C193.068 196.649 186.954 198.468 181.753 201.875C176.551 205.282 172.497 210.124 170.1 215.791C167.704 221.458 167.074 227.694 168.29 233.711C169.506 239.729 172.513 245.258 176.931 249.6C181.349 253.942 186.98 256.902 193.113 258.106C199.246 259.31 205.605 258.704 211.387 256.364C217.168 254.025 222.113 250.057 225.597 244.962C229.08 239.867 230.946 233.874 230.958 227.739C230.962 223.66 230.147 219.621 228.559 215.851C226.972 212.081 224.642 208.655 221.705 205.768C218.767 202.881 215.278 200.59 211.438 199.025C207.598 197.461 203.481 196.653 199.322 196.649Z" fill="#613F2D"/>
<path d="M258.152 121.088C258.823 121.088 259.479 121.283 260.037 121.649C260.595 122.014 261.029 122.534 261.286 123.142C261.543 123.749 261.61 124.418 261.479 125.064C261.348 125.709 261.025 126.302 260.551 126.767C260.076 127.232 259.472 127.549 258.814 127.678C258.156 127.806 257.474 127.74 256.854 127.488C256.235 127.236 255.705 126.81 255.332 126.263C254.96 125.716 254.761 125.073 254.761 124.415C254.761 123.532 255.118 122.686 255.754 122.062C256.39 121.438 257.253 121.088 258.152 121.088ZM258.152 126.458C258.565 126.461 258.97 126.344 259.314 126.121C259.659 125.899 259.928 125.58 260.088 125.207C260.248 124.834 260.292 124.423 260.213 124.025C260.134 123.628 259.937 123.262 259.646 122.975C259.356 122.688 258.984 122.491 258.58 122.411C258.175 122.331 257.755 122.371 257.374 122.525C256.992 122.679 256.666 122.941 256.436 123.278C256.207 123.614 256.084 124.01 256.084 124.415C256.084 124.954 256.301 125.472 256.689 125.855C257.076 126.237 257.602 126.455 258.152 126.458Z" fill="#CCA270"/>
<path d="M164.629 110.914H246.609L257.255 121.357C257.316 121.416 257.365 121.487 257.398 121.565C257.431 121.644 257.448 121.727 257.448 121.812C257.448 121.896 257.431 121.98 257.398 122.058C257.365 122.136 257.316 122.207 257.255 122.267C257.194 122.327 257.122 122.374 257.043 122.407C256.963 122.439 256.878 122.456 256.791 122.456C256.705 122.456 256.62 122.439 256.54 122.407C256.46 122.374 256.388 122.327 256.327 122.267L246.137 112.272H164.629C164.456 112.272 164.289 112.204 164.167 112.084C164.044 111.963 163.975 111.8 163.975 111.63C163.964 111.54 163.973 111.448 164.001 111.362C164.029 111.275 164.076 111.195 164.138 111.128C164.199 111.06 164.275 111.006 164.36 110.969C164.445 110.932 164.536 110.913 164.629 110.914Z" fill="#CCA270"/>
<path d="M259.461 157.533C260.132 157.533 260.788 157.728 261.345 158.094C261.903 158.459 262.338 158.979 262.595 159.587C262.851 160.195 262.919 160.864 262.788 161.509C262.657 162.154 262.334 162.747 261.859 163.212C261.385 163.678 260.781 163.994 260.123 164.123C259.465 164.251 258.783 164.185 258.163 163.934C257.543 163.682 257.014 163.255 256.641 162.708C256.268 162.161 256.069 161.518 256.069 160.86C256.069 159.978 256.427 159.131 257.063 158.508C257.699 157.884 258.561 157.533 259.461 157.533ZM259.461 162.904C259.873 162.904 260.276 162.784 260.619 162.559C260.961 162.335 261.228 162.016 261.386 161.642C261.544 161.269 261.585 160.858 261.505 160.461C261.424 160.065 261.226 159.701 260.934 159.415C260.643 159.129 260.272 158.934 259.868 158.855C259.463 158.777 259.044 158.817 258.664 158.972C258.283 159.126 257.957 159.388 257.729 159.725C257.5 160.061 257.377 160.456 257.377 160.86C257.377 161.402 257.597 161.922 257.988 162.305C258.378 162.688 258.908 162.904 259.461 162.904Z" fill="#CCA270"/>
<path d="M165.922 147.359H247.901L258.548 157.802C258.671 157.923 258.74 158.087 258.74 158.257C258.74 158.428 258.671 158.591 258.548 158.712C258.425 158.833 258.258 158.901 258.084 158.901C257.91 158.901 257.743 158.833 257.62 158.712L247.369 148.672H165.922C165.748 148.672 165.582 148.605 165.459 148.484C165.337 148.364 165.268 148.201 165.268 148.031C165.268 147.861 165.337 147.697 165.459 147.577C165.582 147.457 165.748 147.389 165.922 147.389V147.359Z" fill="#CCA270"/>
<path d="M75.8814 159.816C79.2222 150.681 78.895 140.642 74.966 131.735C71.0371 122.827 63.8006 115.72 54.725 111.854C53.9341 111.526 53.2041 111.213 52.2915 110.914C42.5538 107.501 31.8328 108.021 22.4861 112.361C13.1394 116.7 5.9323 124.502 2.44984 134.052C0.649095 138.799 -0.172918 143.848 0.0315778 148.908C0.236073 153.969 1.46295 158.938 3.64106 163.53C5.81916 168.121 8.90521 172.243 12.72 175.655C16.5348 179.068 21.0024 181.703 25.8637 183.409C30.7251 185.115 35.8834 185.856 41.0393 185.591C46.1952 185.326 51.2462 184.06 55.8991 181.865C60.5521 179.67 64.7145 176.591 68.1447 172.806C71.5749 169.021 74.2046 164.606 75.8814 159.816ZM29.3251 173.944C25.6381 172.731 22.2348 170.808 19.3143 168.289C16.3938 165.771 14.0148 162.706 12.3165 159.274C10.6181 155.843 9.63449 152.114 9.42317 148.305C9.21185 144.496 9.77708 140.684 11.0858 137.092C12.3945 133.5 14.4204 130.2 17.0449 127.385C19.6695 124.57 22.84 122.297 26.371 120.699C29.902 119.1 33.7226 118.208 37.6092 118.075C41.4958 117.943 45.3703 118.571 49.0062 119.925C49.6349 120.144 50.2433 120.382 50.8314 120.641C57.8366 123.575 63.3973 129.076 66.3297 135.972C69.2621 142.867 69.3345 150.613 66.5314 157.561C63.7284 164.508 58.2714 170.108 51.3222 173.168C44.373 176.227 36.4805 176.506 29.3251 173.944Z" fill="#E9D9BF"/>
<path d="M30.4501 119.552L27.5451 110.422C19.8049 112.804 13.0117 117.488 8.10647 123.826C3.20126 130.163 0.426967 137.84 0.167969 145.793L9.93247 146.077C10.1214 140.113 12.1984 134.355 15.8751 129.602C19.5518 124.849 24.6458 121.336 30.4501 119.552Z" fill="#613F2D"/>
<path d="M50.8317 120.641L54.7253 111.854C53.9344 111.526 53.2044 111.212 52.2918 110.914C44.3194 108.103 35.628 107.931 27.5459 110.422L30.4509 119.552C36.5127 117.692 43.0274 117.823 49.0065 119.925C49.6352 120.193 50.2436 120.432 50.8317 120.641Z" fill="#84553D"/>
<path d="M64.4436 117.792C61.5224 115.342 58.2471 113.331 54.7247 111.824L50.8311 120.641C53.4712 121.772 55.9262 123.28 58.1164 125.116L64.4436 117.792Z" fill="#DABF97"/>
<path d="M375.768 153.341C375.768 156.903 375.052 160.43 373.663 163.72C372.273 167.011 370.236 170.001 367.669 172.519C365.101 175.037 362.053 177.035 358.698 178.398C355.343 179.761 351.748 180.463 348.117 180.463C344.005 180.472 339.944 179.569 336.238 177.822C331.858 181.805 322.747 184.013 322.747 184.013C325.933 181.184 328.304 177.583 329.622 173.57C326.203 170.546 323.609 166.732 322.075 162.474C320.541 158.217 320.116 153.651 320.838 149.191C321.56 144.731 323.407 140.519 326.21 136.937C329.013 133.355 332.684 130.517 336.89 128.68C341.096 126.843 345.703 126.066 350.292 126.419C354.882 126.772 359.309 128.244 363.171 130.701C367.034 133.159 370.209 136.524 372.409 140.491C374.608 144.457 375.763 148.9 375.768 153.416V153.341Z" fill="#DABF97"/>
<path d="M356.239 153.356C356.239 154.041 356.447 154.711 356.835 155.28C357.223 155.849 357.775 156.293 358.421 156.555C359.067 156.816 359.777 156.884 360.462 156.749C361.147 156.614 361.776 156.283 362.268 155.798C362.761 155.312 363.096 154.694 363.231 154.022C363.365 153.349 363.293 152.653 363.024 152.021C362.754 151.389 362.299 150.849 361.717 150.471C361.135 150.092 360.451 149.892 359.753 149.895C359.29 149.895 358.832 149.984 358.405 150.158C357.977 150.332 357.589 150.588 357.263 150.909C356.936 151.231 356.678 151.612 356.502 152.032C356.327 152.452 356.237 152.902 356.239 153.356Z" fill="white"/>
<path d="M344.589 153.356C344.589 154.04 344.796 154.709 345.184 155.278C345.571 155.848 346.122 156.291 346.767 156.553C347.412 156.815 348.121 156.884 348.806 156.75C349.49 156.617 350.119 156.287 350.613 155.803C351.106 155.319 351.442 154.702 351.578 154.031C351.714 153.359 351.645 152.664 351.377 152.031C351.11 151.399 350.658 150.858 350.078 150.478C349.498 150.098 348.815 149.895 348.117 149.895C347.182 149.895 346.284 150.259 345.622 150.908C344.961 151.557 344.589 152.438 344.589 153.356Z" fill="white"/>
<path d="M332.953 153.356C332.953 154.04 333.16 154.709 333.548 155.278C333.936 155.848 334.487 156.291 335.131 156.553C335.776 156.815 336.486 156.884 337.17 156.75C337.855 156.617 338.483 156.287 338.977 155.803C339.47 155.319 339.806 154.702 339.943 154.031C340.079 153.359 340.009 152.664 339.742 152.031C339.475 151.399 339.022 150.858 338.442 150.478C337.862 150.098 337.18 149.895 336.482 149.895C335.546 149.895 334.648 150.259 333.987 150.908C333.325 151.557 332.953 152.438 332.953 153.356Z" fill="white"/>
<path d="M372.939 305.104C367.462 306.827 361.812 307.972 356.087 308.52C355.935 306.551 355.844 304.567 355.844 302.553C355.833 289.743 359.186 277.146 365.579 265.976C371.973 254.806 381.191 245.439 392.347 238.777C395.236 265.72 392.62 297.854 372.939 305.104Z" fill="#E4C8A7"/>
<path d="M456.212 435.982H379.267C382.841 428.717 395.586 423.107 411.496 421.914V325.9C411.5 324.846 411.929 323.837 412.69 323.093C413.451 322.349 414.482 321.932 415.557 321.932H419.906C420.976 321.939 421.998 322.361 422.753 323.103C423.508 323.846 423.933 324.851 423.937 325.9V393.868V416.111V421.914C439.877 423.167 452.637 428.717 456.212 435.982Z" fill="#E9D9BF"/>
<path d="M447.177 333.255C441.875 334.948 436.404 336.083 430.857 336.641C409.107 339.118 380.559 337.014 370.795 334.284C354.551 329.734 367.585 323.289 370.795 323.051C409.685 320.067 413.153 307.58 416.043 297.973C420.849 281.951 425.26 251.726 426.69 238.747C428.119 225.769 447.816 224.799 456.09 231.288C459.299 233.81 464.059 250.13 466.021 269.091C468.759 295.139 466.219 326.198 447.177 333.255Z" fill="#E9D9BF"/>
<path d="M448.606 332.644C443.796 334.367 438.792 335.514 433.701 336.06C433.564 334.091 433.488 332.107 433.488 330.093C433.488 303.076 446.432 279.371 465.824 266.332C468.303 293.274 466.006 325.364 448.606 332.644Z" fill="#CCA270"/>
<path d="M402.993 126.802C402.993 126.802 388.133 141.482 393.198 160.369C398.263 179.255 406.385 179.374 415.343 171.244C424.302 163.114 429.579 154.64 430.75 145.062C431.921 135.485 416.545 113.704 402.993 126.802Z" fill="#FFCEB5"/>
<path d="M400.073 189.832C401.553 186.408 402.808 182.895 403.83 179.315C404.104 178.345 404.347 177.345 404.56 176.331C405.321 172.825 405.64 169.379 404.819 167.007C402.446 160.145 419.663 164.904 419.663 164.904C419.663 164.904 416.332 183.059 419.663 189.176C422.994 195.292 400.073 189.832 400.073 189.832Z" fill="#FFCEB5"/>
<path d="M407.83 137.364C407.83 137.364 414.932 150.03 419.374 154.639C423.815 159.249 423.267 162.785 423.267 162.785C423.267 162.785 440.439 141.899 428.165 129.278C415.891 116.657 400.073 121.819 395.449 132.754C390.825 143.689 392.514 157.146 392.514 157.146C392.514 157.146 392.65 144.331 407.83 137.364Z" fill="#613F2D"/>
<path d="M412.514 124.101C412.514 124.101 410.795 114.822 425.625 111.137C440.454 107.452 447.116 124.206 445.23 134.425C443.344 144.644 430.72 170.572 437.625 173.943C444.53 177.315 447.192 170.049 447.192 170.049C447.192 170.049 445.047 182.79 435.48 179.851C425.914 176.912 427.237 156.131 428.682 147.911C430.127 139.691 412.514 124.101 412.514 124.101Z" fill="#613F2D"/>
<path d="M417.29 169.408C416.033 172.006 414.151 174.265 411.807 175.99C409.462 177.716 406.724 178.857 403.83 179.314C404.104 178.344 404.347 177.345 404.56 176.33C404.56 176.345 409.853 177.389 417.29 169.408Z" fill="#A67861"/>
<path d="M163.762 318.084C163.397 300.585 155.96 282.37 140.948 272.867C134.56 268.824 126.423 266.527 119.275 269.078C108.202 273.061 104.065 286.86 105.89 298.303C107.715 309.745 113.388 320.053 119.062 330.138C123.199 337.597 139.99 378.19 150.454 369.806C155.838 365.48 157.816 353.157 159.58 346.981C162.388 337.597 163.797 327.864 163.762 318.084Z" fill="#E9D9BF"/>
<path d="M150.241 425.958C150.363 419.722 150.241 413.427 150.058 407.161C149.876 400.895 149.526 394.615 149.07 388.349C148.173 375.833 146.819 363.331 144.902 350.904C143.975 344.698 142.849 338.507 141.617 332.346C140.385 326.185 138.94 320.068 137.374 313.981C135.807 307.895 133.967 301.868 132.02 295.886C130.073 289.903 127.777 284.04 125.343 278.222C125.316 278.16 125.302 278.092 125.302 278.024C125.302 277.957 125.316 277.889 125.343 277.827C125.369 277.764 125.409 277.707 125.459 277.66C125.508 277.613 125.567 277.576 125.632 277.551C125.757 277.501 125.897 277.501 126.022 277.551C126.147 277.602 126.248 277.698 126.301 277.819C128.841 283.623 131.183 289.5 133.267 295.483C135.351 301.465 137.252 307.417 138.91 313.579C140.568 319.74 142.119 325.812 143.473 331.988C144.826 338.164 146.028 344.355 147.062 350.591C149.161 363.033 150.697 375.579 151.792 388.155C152.34 394.441 152.761 400.741 153.055 407.056C153.344 413.367 153.541 419.662 153.496 426.018C153.518 426.237 153.492 426.459 153.422 426.668C153.351 426.878 153.236 427.07 153.085 427.234C152.934 427.397 152.75 427.527 152.544 427.617C152.339 427.706 152.116 427.752 151.891 427.752C151.666 427.752 151.444 427.706 151.238 427.617C151.033 427.527 150.848 427.397 150.697 427.234C150.546 427.07 150.431 426.878 150.361 426.668C150.29 426.459 150.265 426.237 150.287 426.018L150.241 425.958Z" fill="#613F2D"/>
<path d="M135.99 305.925L116.217 297.317C116.127 297.278 116.046 297.223 115.978 297.153C115.91 297.083 115.857 297 115.821 296.91C115.786 296.82 115.769 296.724 115.772 296.627C115.775 296.531 115.797 296.436 115.837 296.348C115.92 296.172 116.07 296.034 116.255 295.965C116.439 295.895 116.644 295.899 116.826 295.975L135.625 304.135L146.849 291.201C146.914 291.126 146.992 291.065 147.081 291.021C147.17 290.977 147.267 290.95 147.366 290.943C147.465 290.936 147.565 290.949 147.659 290.98C147.753 291.012 147.84 291.061 147.914 291.126C147.985 291.193 148.04 291.273 148.079 291.361C148.117 291.45 148.137 291.545 148.137 291.641C148.137 291.737 148.117 291.832 148.079 291.92C148.04 292.009 147.985 292.089 147.914 292.156L135.99 305.925Z" fill="#613F2D"/>
<path d="M142.879 333.659L128.187 327.438C127.947 327.333 127.758 327.14 127.661 326.9C127.564 326.66 127.568 326.393 127.67 326.155C127.721 326.037 127.796 325.93 127.89 325.841C127.983 325.751 128.094 325.681 128.216 325.633C128.338 325.586 128.468 325.563 128.598 325.566C128.729 325.568 128.858 325.596 128.978 325.648L142.378 331.302L151.123 322.157C151.212 322.059 151.32 321.979 151.44 321.922C151.56 321.865 151.691 321.832 151.824 321.824C151.958 321.816 152.092 321.835 152.218 321.878C152.344 321.921 152.46 321.988 152.56 322.075C152.66 322.162 152.742 322.268 152.8 322.386C152.858 322.504 152.892 322.632 152.9 322.763C152.908 322.894 152.889 323.025 152.845 323.149C152.801 323.273 152.733 323.387 152.644 323.485L142.879 333.659Z" fill="#613F2D"/>
<path d="M146.91 356.916L140.081 352.918C139.87 352.844 139.678 352.725 139.519 352.57C139.361 352.415 139.239 352.227 139.163 352.02C139.086 351.813 139.058 351.592 139.079 351.373C139.1 351.155 139.17 350.943 139.284 350.754C139.398 350.564 139.554 350.402 139.739 350.279C139.925 350.155 140.136 350.074 140.357 350.04C140.579 350.005 140.805 350.02 141.02 350.082C141.236 350.143 141.434 350.251 141.602 350.397L146.347 353.172L148.674 350.74C148.96 350.532 149.311 350.428 149.666 350.447C150.021 350.467 150.358 350.607 150.618 350.845C150.879 351.082 151.046 351.402 151.091 351.748C151.136 352.094 151.056 352.445 150.865 352.739L146.91 356.916Z" fill="#613F2D"/>
<path d="M156.507 344.654C160.492 327.647 171.063 311.834 186.714 306.627C193.375 304.404 201.269 304.36 207.247 308.805C216.524 315.698 217.346 330.303 213.33 341.014C209.315 351.725 201.938 360.244 194.668 368.583C189.345 374.669 165.557 409.891 157.77 398.852C153.77 393.168 154.545 380.562 154.257 374.058C153.657 364.202 154.414 354.312 156.507 344.654Z" fill="#E9D9BF"/>
<path d="M152.203 432.015C153.76 421.567 155.995 411.228 158.895 401.059C159.641 398.523 160.416 395.987 161.116 393.466L163.534 386.007C165.283 381.039 167.002 376.056 169.01 371.178L170.531 367.493C171.017 366.27 171.58 365.077 172.052 363.868L175.246 356.618L178.713 349.502C179.307 348.323 179.839 347.13 180.478 345.966L182.364 342.49L184.25 338.999L185.193 337.269C185.512 336.687 185.831 336.105 186.181 335.553L190.288 328.765C190.987 327.647 191.626 326.498 192.371 325.394L194.592 322.112L199.033 315.563C199.108 315.45 199.225 315.371 199.359 315.343C199.493 315.315 199.633 315.341 199.748 315.414C199.856 315.489 199.931 315.601 199.959 315.728C199.987 315.855 199.966 315.987 199.9 316.1L195.565 322.694L193.421 326.006C192.706 327.11 192.082 328.258 191.398 329.392L187.428 336.195C187.094 336.747 186.79 337.329 186.485 337.925L185.573 339.656L183.763 343.147L181.938 346.638C181.329 347.801 180.812 349.01 180.234 350.188L176.919 357.319L173.877 364.554C173.39 365.763 172.842 366.956 172.356 368.194L170.972 371.864C169.055 376.743 167.443 381.71 165.785 386.678L163.504 394.137C162.774 396.644 162.12 399.18 161.42 401.701C160.72 404.222 160.173 406.773 159.549 409.309C158.926 411.845 158.424 414.396 157.876 416.947C156.872 422.064 155.945 427.226 155.321 432.328C155.273 432.724 155.066 433.084 154.747 433.331C154.427 433.577 154.021 433.688 153.618 433.641C153.214 433.593 152.847 433.391 152.596 433.077C152.345 432.764 152.231 432.366 152.279 431.97L152.203 432.015Z" fill="#613F2D"/>
<path d="M184.295 340.281L176.28 323.588C176.197 323.416 176.187 323.218 176.253 323.039C176.319 322.86 176.454 322.714 176.63 322.633C176.805 322.552 177.006 322.542 177.189 322.607C177.371 322.671 177.52 322.804 177.603 322.976L185.208 338.7L204.022 335.836C204.121 335.807 204.226 335.799 204.329 335.813C204.432 335.827 204.531 335.862 204.619 335.916C204.707 335.971 204.782 336.043 204.839 336.128C204.896 336.213 204.934 336.309 204.95 336.409C204.967 336.51 204.961 336.613 204.934 336.711C204.906 336.809 204.858 336.901 204.792 336.979C204.725 337.058 204.643 337.121 204.549 337.166C204.456 337.21 204.354 337.235 204.25 337.238L184.295 340.281Z" fill="#613F2D"/>
<path d="M172.204 365.539L165.511 352.993C165.449 352.883 165.41 352.762 165.397 352.637C165.383 352.511 165.396 352.385 165.435 352.265C165.473 352.145 165.536 352.034 165.62 351.938C165.704 351.843 165.807 351.765 165.922 351.71C166.15 351.594 166.416 351.572 166.661 351.647C166.906 351.723 167.11 351.89 167.23 352.113L173.314 363.466L186.683 361.571C186.923 361.563 187.158 361.642 187.342 361.793C187.527 361.944 187.648 362.157 187.682 362.39C187.716 362.624 187.66 362.861 187.527 363.057C187.393 363.253 187.19 363.393 186.957 363.451L172.204 365.539Z" fill="#613F2D"/>
<path d="M164.371 386.947L161.009 382.188C160.803 381.869 160.728 381.486 160.798 381.115C160.869 380.744 161.08 380.413 161.389 380.189C161.713 379.991 162.1 379.92 162.475 379.989C162.85 380.058 163.184 380.262 163.412 380.562L165.572 383.62L169.968 382.352C170.166 382.226 170.392 382.147 170.628 382.122C170.863 382.097 171.101 382.126 171.323 382.207C171.545 382.288 171.744 382.418 171.905 382.588C172.067 382.758 172.186 382.962 172.252 383.185C172.319 383.408 172.332 383.643 172.289 383.871C172.247 384.099 172.151 384.315 172.009 384.501C171.867 384.686 171.683 384.837 171.471 384.94C171.259 385.044 171.026 385.097 170.789 385.097L164.371 386.947Z" fill="#613F2D"/>
<path d="M142.363 341.118C136.811 326.976 125.282 314.265 110.225 310.894C103.806 309.402 96.5363 309.924 91.4412 314.071C83.6082 320.516 84.4447 332.928 89.3118 341.745C94.1788 350.562 101.966 357.29 109.617 363.869C115.214 368.672 141.115 396.957 147.108 387.096C150.15 382.009 148.097 371.402 147.656 365.868C147.125 357.41 145.342 349.072 142.363 341.118Z" fill="#E9D9BF"/>
<path d="M153.207 415.336C152.051 410.965 150.591 406.564 149.07 402.238C148.264 400.09 147.549 397.912 146.636 395.778L145.343 392.571C144.917 391.512 144.476 390.438 144.005 389.393C143.077 387.29 142.195 385.157 141.206 383.068L138.256 376.817L135.092 370.656C134.575 369.612 134.012 368.612 133.449 367.672L131.761 364.689L130.073 361.705L128.278 358.721C127.061 356.752 125.905 354.753 124.643 352.754C122.073 348.92 119.593 344.997 116.795 341.312C111.354 333.804 105.463 326.621 99.1519 319.8C99.0683 319.716 99.0215 319.603 99.0215 319.486C99.0215 319.369 99.0683 319.257 99.1519 319.173C99.239 319.094 99.3529 319.051 99.4713 319.051C99.5896 319.051 99.7036 319.094 99.7907 319.173C106.25 325.915 112.294 333.029 117.89 340.476C120.78 344.146 123.335 348.055 125.997 351.874C127.29 353.813 128.491 355.797 129.738 357.767L131.609 360.75L133.358 363.734L135.107 366.718C135.7 367.717 136.278 368.717 136.811 369.701L140.111 375.848L143.153 382.098C144.187 384.187 145.1 386.32 146.073 388.439C149.932 396.934 153.199 405.676 155.853 414.605C155.909 414.78 155.929 414.965 155.911 415.147C155.893 415.33 155.837 415.507 155.748 415.669C155.659 415.83 155.538 415.972 155.392 416.087C155.246 416.202 155.078 416.286 154.898 416.336C154.718 416.386 154.53 416.4 154.344 416.377C154.158 416.355 153.979 416.296 153.817 416.204C153.655 416.112 153.514 415.989 153.401 415.843C153.288 415.696 153.207 415.529 153.161 415.351L153.207 415.336Z" fill="#613F2D"/>
<path d="M116.111 339.207L97.3726 337.939C97.1992 337.927 97.0377 337.848 96.9236 337.719C96.8095 337.591 96.7522 337.423 96.7643 337.253C96.7764 337.083 96.8569 336.924 96.9881 336.812C97.1193 336.7 97.2904 336.644 97.4639 336.656L115.229 337.879L120.491 324.08C120.513 323.992 120.554 323.91 120.611 323.839C120.668 323.768 120.74 323.709 120.822 323.667C120.903 323.625 120.993 323.601 121.085 323.595C121.177 323.589 121.269 323.603 121.355 323.635C121.442 323.666 121.52 323.716 121.586 323.779C121.651 323.843 121.702 323.919 121.736 324.004C121.769 324.088 121.784 324.178 121.779 324.268C121.774 324.359 121.75 324.447 121.708 324.527L116.111 339.207Z" fill="#613F2D"/>
<path d="M130.058 359.825L116.218 359.019C116.104 359.012 115.992 358.983 115.89 358.934C115.787 358.885 115.696 358.817 115.62 358.733C115.468 358.564 115.39 358.342 115.404 358.116C115.418 357.891 115.523 357.68 115.695 357.53C115.868 357.381 116.094 357.305 116.324 357.318L128.948 358.049L133.313 348.069C133.356 347.967 133.42 347.874 133.5 347.795C133.58 347.717 133.676 347.656 133.78 347.614C133.885 347.572 133.997 347.551 134.11 347.553C134.223 347.554 134.335 347.577 134.439 347.621C134.648 347.713 134.813 347.881 134.898 348.09C134.983 348.299 134.982 348.532 134.895 348.74L130.058 359.825Z" fill="#613F2D"/>
<path d="M139.624 377.443L133.54 376.31C133.358 376.295 133.18 376.243 133.019 376.156C132.858 376.07 132.717 375.951 132.606 375.808C132.495 375.665 132.416 375.5 132.374 375.325C132.332 375.15 132.328 374.968 132.362 374.791C132.396 374.614 132.468 374.446 132.573 374.298C132.678 374.151 132.813 374.026 132.97 373.933C133.127 373.84 133.302 373.78 133.485 373.758C133.667 373.736 133.852 373.751 134.027 373.803L138.316 374.609L139.974 371.879C140.166 371.619 140.45 371.44 140.771 371.376C141.091 371.311 141.424 371.367 141.704 371.532C141.985 371.696 142.192 371.958 142.286 372.265C142.379 372.573 142.352 372.903 142.21 373.192L139.624 377.443Z" fill="#613F2D"/>
<path d="M185.937 412.307L185.055 415.633L183.291 422.302L180.143 434.177L179.032 438.384L174.028 457.3H134.21L129.206 438.384L128.096 434.177L124.947 422.302L123.183 415.633L122.301 412.307H185.937Z" fill="#E9D9BF"/>
<path opacity="0.63" d="M185.056 415.635L183.292 422.303H124.948L123.184 415.635H185.056Z" fill="#E9D9BF"/>
<path d="M180.386 433.375L179.263 437.582H128.883L127.761 433.375H180.386Z" fill="#613F2D"/>
<path d="M187.079 411.744L185.266 416.22H123.491L121.678 411.744H187.079Z" fill="#613F2D"/>
<path d="M389.563 394.421C398.689 401.209 395.085 400.896 403.632 391.154L398.431 384.68C398.431 384.68 389.868 392.78 389.563 394.421Z" fill="#FFCEB5"/>
<path d="M395.844 398.702C397.137 406.295 392.666 410.83 390.901 417.007C390.901 418.856 392.133 425.212 401.548 416.052C421.077 398.045 418.431 401.507 403.221 391.049C403.206 391.049 401.746 393.988 395.844 398.702Z" fill="#CCA270"/>
<path d="M339.813 422.288C338.657 433.432 337.06 430.284 349.988 432.358L352.908 424.66C352.908 424.66 341.41 421.676 339.813 422.288Z" fill="#FFCEB5"/>
<path d="M339.356 429.777C333.44 434.805 327.188 433.432 320.846 435.178C319.219 436.073 314.367 440.489 327.234 443.577C353.09 450.544 348.695 450.126 349.866 431.941C349.866 431.941 346.535 432.254 339.356 429.777Z" fill="#CCA270"/>
<path d="M426.431 315.205C423.781 319.517 420.839 323.649 417.624 327.572C407.936 339.507 397.396 349.458 395.555 358.811C395.138 360.839 394.568 362.833 393.852 364.779C393.076 366.912 392.133 369.165 391.038 371.492C386.302 381.062 380.82 390.259 374.642 399.001C363.995 414.427 354.048 427.346 354.048 427.346L335.797 426.585C336.527 424.78 344.512 403.492 355.189 377.459L368.573 344.818L370.353 340.507C371.712 337.185 373.045 333.933 374.353 330.75L392.361 286.846C392.361 286.846 432.438 271.927 436.606 281.609C439.982 289.516 437.199 297.303 426.431 315.205Z" fill="#613F2D"/>
<path d="M378.627 279.729C378.627 279.729 328.329 310.46 322.717 331.122C317.105 351.784 389.639 395.822 389.639 395.822C389.639 395.822 397.593 388.945 398.993 383.888C398.993 383.888 366.216 345.369 359.098 336.731C354.733 331.435 423.678 318.382 432.104 305.522C440.53 292.663 437.503 281.862 437.503 281.862L378.627 279.729Z" fill="#613F2D"/>
<path d="M377.304 258.56C377.304 258.56 376.756 265.094 377.304 266.466C377.304 266.466 344.968 263.304 341.957 258.873C340.098 255.92 339.094 252.527 339.052 249.057L377.304 258.56Z" fill="#CCA270"/>
<path d="M421.838 186.654L417.762 185.595L402.02 185.043C395.512 186.133 389.093 187.678 382.81 189.668C374.414 192.517 363.418 208.107 363.418 208.107C363.418 208.107 378.628 243.045 381.487 253.07C384.346 263.095 382.46 278.625 382.46 278.625C391.388 283.399 402.948 283.25 412.423 281.877C418.344 281.017 424.169 279.614 429.823 277.685C427.787 270.021 427.393 262.025 428.667 254.204C428.804 253.428 428.956 252.712 429.138 252.026C429.321 251.34 429.519 250.534 429.762 249.505C429.769 249.46 429.769 249.415 429.762 249.371L430.598 249.46C430.65 249.043 430.726 248.63 430.827 248.222C431.678 244.701 432.667 241.345 433.549 238.465L433.64 238.212H433.199C434.142 235.616 435.177 233.259 435.663 232.244C436.332 230.305 436.774 229.261 436.774 229.261C436.774 229.261 443.222 194.262 421.838 186.654Z" fill="white"/>
<path d="M435.708 231.647C435.708 231.647 435.009 233.138 433.062 238.882C431.085 222.681 432.119 214.252 432.119 214.252C432.442 220.191 433.651 226.052 435.708 231.647Z" fill="#CEBDB7"/>
<path d="M429.732 249.49C429.473 250.489 429.26 251.384 429.108 252.011C428.956 252.638 428.789 253.503 428.652 254.189C422.127 250.713 417.442 247.998 417.442 247.998C419.207 248.371 429.732 249.49 429.732 249.49Z" fill="#CEBDB7"/>
<path d="M418.598 185.817L400.073 200.616L401.99 185.027C401.99 185.027 412.788 182.729 418.598 185.817Z" fill="#FFCEB5"/>
<path d="M405.427 198.096L400.073 200.618L418.264 182.939L405.427 198.096Z" fill="#D5C4BD"/>
<path d="M437.701 281.892L419.009 287.621C418.374 287.811 417.707 287.87 417.048 287.794C416.389 287.718 415.754 287.508 415.182 287.179C414.61 286.849 414.114 286.407 413.725 285.879C413.337 285.352 413.064 284.751 412.925 284.115L412.423 281.863C409.731 269.346 404.499 243.687 403.86 229.022C402.947 209.091 417.761 185.58 417.761 185.58C419.152 185.802 420.517 186.157 421.838 186.639C443.222 194.248 436.804 229.007 436.804 229.007C436.804 229.007 436.363 230.126 435.693 231.991C435.374 232.886 434.994 233.945 434.598 235.153C434.309 236.034 434.005 236.988 433.671 238.033L433.579 238.286C432.697 241.166 431.708 244.522 430.857 248.043C430.756 248.451 430.68 248.864 430.629 249.281C428.971 260.321 437.701 281.892 437.701 281.892Z" fill="#CCA270"/>
<path d="M400.134 185.878L400.453 185.027C400.453 185.027 386.993 187.026 380.149 190.383C373.304 193.74 360.209 211.045 360.209 211.045L377.335 233.228C377.335 250.28 374.536 280.579 374.536 280.579L382.369 285.054C382.851 285.327 383.396 285.472 383.952 285.474C384.508 285.477 385.054 285.337 385.538 285.069C386.022 284.801 386.426 284.413 386.711 283.945C386.995 283.477 387.15 282.944 387.16 282.399C387.388 270.882 387.906 243.507 388.179 230.185C388.544 213.148 400.94 185.564 400.94 185.564L400.134 185.878Z" fill="#CCA270"/>
<path d="M375.723 265.796C375.723 265.796 388.636 266.303 390.643 265.796C392.651 265.288 406.051 259.605 406.857 253.98C407.663 248.356 375.723 259.067 375.723 259.067V265.796Z" fill="#FFCEB5"/>
<path d="M415.784 248.207L363.372 242.18L387.053 261.081L415.784 248.207Z" fill="#613F2D"/>
<path d="M387.053 261.081L415.784 251.474V248.207L386.08 257.546L387.053 261.081Z" fill="#CCA270"/>
<path d="M402.978 182.148L393 197.634L388.179 200.617L399.403 185.192L402.978 182.148Z" fill="#F9E4DC"/>
<path d="M393 197.634L400.072 200.617L401.974 185.028L402.977 182.148L393 197.634Z" fill="#D5C4BD"/>
<path d="M387.054 261.081L371.768 205.346L313.652 199.334L329.577 250.638L387.054 261.081Z" fill="#613F2D"/>
<path d="M418.264 182.939L405.427 198.096L412.454 204.243L420.028 186.087L418.264 182.939Z" fill="#F9E4DC"/>
<path d="M404.97 238.763C402.71 238.769 400.453 238.609 398.217 238.286C396.331 237.913 391.662 238.42 390.475 239.465C389.289 240.509 385.502 247.699 384.787 248.132C384.072 248.565 385.152 249.624 386.399 249.087C386.399 249.087 387.555 252.235 390.399 251.056C393.244 249.878 395.19 247.297 396.681 246.849C398.172 246.402 406.856 244.149 406.856 244.149C406.856 244.149 407.206 238.003 404.97 238.763Z" fill="#FFCEB5"/>
<path d="M437.625 237.555C437.577 237.749 437.467 237.924 437.311 238.052C437.156 238.181 436.962 238.258 436.758 238.271L434.583 238.092H433.838C430.37 237.824 424.713 237.466 420.074 237.451C412.864 237.451 400.529 238.211 400.529 238.211L402.05 245.76C402.05 245.76 423.906 249.251 435.846 250.071C435.846 250.071 451.603 251.847 452.774 249.534C452.872 249.305 452.938 249.065 452.972 248.818C453.185 238.256 448.013 234.616 437.625 237.555Z" fill="#CCA270"/>
<path d="M449.686 219.056C447.115 205.719 444.484 198.036 441.351 193.919C438.218 189.801 421.67 186.594 421.67 186.594L435.708 231.647C435.708 231.647 437.716 235.66 437.625 237.405C437.634 237.455 437.634 237.505 437.625 237.555C437.473 247.997 442.735 251.488 452.834 248.773C453.564 245.014 452.059 231.408 449.686 219.056Z" fill="#CCA270"/>
</g>
<defs>
<clipPath id="clip0_24_1876">
<rect width="560" height="470" fill="white"/>
</clipPath>
</defs>
</svg>
