<svg width="314" height="215" viewBox="0 0 314 215" fill="none" xmlns="http://www.w3.org/2000/svg" xmlns:xlink="http://www.w3.org/1999/xlink">
<g clip-path="url(#clip0_2945_35473)">
<path d="M171.398 136.632C209.706 136.632 240.761 106.711 240.761 69.8027C240.761 32.894 209.706 2.97363 171.398 2.97363C133.089 2.97363 102.034 32.894 102.034 69.8027C102.034 106.711 133.089 136.632 171.398 136.632Z" fill="#FEECEC"/>
<path d="M272.607 104.205C289.788 104.205 303.716 90.7867 303.716 74.2347C303.716 57.6827 289.788 44.2646 272.607 44.2646C255.426 44.2646 241.498 57.6827 241.498 74.2347C241.498 90.7867 255.426 104.205 272.607 104.205Z" fill="#FEECEC"/>
<path d="M236.391 182.822C254.957 182.822 270.007 168.323 270.007 150.438C270.007 132.553 254.957 118.054 236.391 118.054C217.826 118.054 202.775 132.553 202.775 150.438C202.775 168.323 217.826 182.822 236.391 182.822Z" fill="#FEECEC"/>
<path d="M269.271 109.43C268.931 124.73 263.33 138.812 254.209 149.928C250.64 154.275 246.54 158.169 242 161.504C231.378 169.313 218.383 174.057 204.369 174.39C196.346 174.581 188.641 173.328 181.475 170.906L148.949 183.962C146.06 185.123 143.057 182.56 143.758 179.523C145.557 171.763 148.453 159.189 150.663 149.206C141.202 137.283 135.721 122.047 136.309 105.508C137.534 70.8363 165.775 42.6292 200.46 41.4539C238.757 40.1582 270.121 71.2399 269.271 109.43Z" fill="#AC0007"/>
<path d="M274.143 107.433C273.803 122.733 268.202 136.816 259.081 147.932C255.512 152.279 251.412 156.173 246.872 159.507C236.25 167.317 223.255 172.061 209.241 172.393C201.218 172.584 193.513 171.331 186.347 168.91L153.821 181.966C150.932 183.127 147.929 180.564 148.63 177.526C150.429 169.767 153.325 157.192 155.535 147.209C146.074 135.286 140.593 120.05 141.181 103.511C142.406 68.8397 170.647 40.6326 205.332 39.4573C243.629 38.1616 274.993 69.2433 274.143 107.433Z" fill="#AC0007"/>
<path opacity="0.15" d="M259.081 147.932C255.512 152.279 251.412 156.173 246.873 159.508L243.105 151.054L259.081 147.932Z" fill="#232323"/>
<path opacity="0.15" d="M173.912 81.4921C177.722 76.6918 179.924 70.5675 179.69 63.9122C179.195 49.9644 167.836 38.615 153.878 38.1406C138.469 37.6167 125.849 50.1202 126.189 65.4911C126.508 79.6938 138.093 91.291 152.299 91.6308C155.528 91.7087 158.63 91.206 161.512 90.2289L174.599 95.4824C175.76 95.9497 176.971 94.916 176.688 93.6982C175.965 90.5688 174.797 85.5065 173.912 81.4921Z" fill="#AF0E0E"/>
<path d="M165.853 102.931L163.509 98.2223C163.268 97.7337 162.574 97.7408 162.333 98.2293L160.025 102.952C159.933 103.143 159.749 103.277 159.529 103.313L154.331 104.085C153.793 104.162 153.581 104.828 153.97 105.203L157.752 108.857C157.907 109.005 157.978 109.225 157.943 109.437L157.072 114.62C156.98 115.158 157.546 115.561 158.028 115.307L162.673 112.843C162.864 112.744 163.091 112.744 163.282 112.843L167.949 115.271C168.431 115.519 168.99 115.115 168.898 114.577L167.992 109.402C167.956 109.189 168.027 108.97 168.176 108.821L171.929 105.14C172.318 104.757 172.099 104.099 171.561 104.021L166.356 103.285C166.129 103.256 165.945 103.122 165.853 102.931Z" fill="white"/>
<path d="M187.062 102.931L184.718 98.2223C184.477 97.7337 183.783 97.7408 183.542 98.2293L181.234 102.952C181.142 103.143 180.958 103.277 180.738 103.313L175.54 104.085C175.002 104.162 174.79 104.828 175.179 105.203L178.961 108.857C179.116 109.005 179.187 109.225 179.152 109.437L178.281 114.62C178.189 115.158 178.755 115.561 179.237 115.307L183.882 112.843C184.073 112.744 184.3 112.744 184.491 112.843L189.158 115.271C189.64 115.519 190.199 115.115 190.107 114.577L189.201 109.402C189.165 109.189 189.236 108.97 189.385 108.821L193.138 105.14C193.527 104.757 193.308 104.099 192.77 104.021L187.565 103.285C187.338 103.256 187.154 103.122 187.062 102.931Z" fill="white"/>
<path d="M208.271 102.931L205.927 98.2223C205.686 97.7337 204.992 97.7408 204.751 98.2293L202.443 102.952C202.351 103.143 202.167 103.277 201.947 103.313L196.749 104.085C196.211 104.162 195.999 104.828 196.388 105.203L200.17 108.857C200.325 109.005 200.396 109.225 200.361 109.437L199.49 114.62C199.398 115.158 199.964 115.561 200.446 115.307L205.091 112.843C205.282 112.744 205.509 112.744 205.7 112.843L210.367 115.271C210.849 115.519 211.408 115.115 211.316 114.577L210.409 109.402C210.374 109.189 210.445 108.97 210.594 108.821L214.347 105.14C214.736 104.757 214.517 104.099 213.979 104.021L208.774 103.285C208.547 103.256 208.363 103.122 208.271 102.931Z" fill="white"/>
<path d="M229.481 102.931L227.137 98.2223C226.896 97.7337 226.202 97.7408 225.961 98.2293L223.653 102.952C223.561 103.143 223.377 103.277 223.157 103.313L217.959 104.085C217.421 104.162 217.209 104.828 217.598 105.203L221.38 108.857C221.535 109.005 221.606 109.225 221.571 109.437L220.7 114.62C220.608 115.158 221.174 115.561 221.656 115.307L226.301 112.843C226.492 112.744 226.719 112.744 226.91 112.843L231.577 115.271C232.059 115.519 232.618 115.115 232.526 114.577L231.619 109.402C231.584 109.189 231.655 108.97 231.804 108.821L235.557 105.14C235.946 104.757 235.727 104.099 235.189 104.021L229.984 103.285C229.764 103.256 229.573 103.122 229.481 102.931Z" fill="white"/>
<path d="M250.69 102.931L248.346 98.2223C248.105 97.7337 247.411 97.7408 247.17 98.2293L244.862 102.952C244.77 103.143 244.586 103.277 244.366 103.313L239.168 104.085C238.63 104.162 238.418 104.828 238.807 105.203L242.589 108.857C242.744 109.005 242.815 109.225 242.78 109.437L241.909 114.62C241.817 115.158 242.383 115.561 242.865 115.307L247.51 112.843C247.701 112.744 247.928 112.744 248.119 112.843L252.786 115.271C253.267 115.519 253.827 115.115 253.735 114.577L252.828 109.402C252.793 109.189 252.864 108.97 253.013 108.821L256.766 105.14C257.155 104.757 256.936 104.099 256.398 104.021L251.193 103.285C250.973 103.256 250.782 103.122 250.69 102.931Z" fill="white"/>
<path d="M195.616 14.316C199.57 14.316 202.776 11.1112 202.776 7.15798C202.776 3.20474 199.57 0 195.616 0C191.662 0 188.457 3.20474 188.457 7.15798C188.457 11.1112 191.662 14.316 195.616 14.316Z" fill="#E5B7B7"/>
<path d="M130.979 98.9854C131.602 96.26 129.897 93.5455 127.171 92.9223C124.446 92.2991 121.73 94.0033 121.107 96.7286C120.484 99.454 122.188 102.169 124.914 102.792C127.64 103.415 130.355 101.711 130.979 98.9854Z" fill="#D75C5C"/>
<path d="M185.908 181.881C187.535 181.881 188.854 180.562 188.854 178.935C188.854 177.309 187.535 175.99 185.908 175.99C184.281 175.99 182.962 177.309 182.962 178.935C182.962 180.562 184.281 181.881 185.908 181.881Z" fill="#D75C5C"/>
<path d="M293.831 115.781C295.458 115.781 296.777 114.462 296.777 112.836C296.777 111.209 295.458 109.89 293.831 109.89C292.204 109.89 290.885 111.209 290.885 112.836C290.885 114.462 292.204 115.781 293.831 115.781Z" fill="#E5B7B7"/>
<g clip-path="url(#clip1_2945_35473)">
<path fill-rule="evenodd" clip-rule="evenodd" d="M74.5812 49.7092C81.5571 47.4529 89.5871 52.3053 92.5015 60.5575C95.4159 68.8096 92.0984 77.3708 85.1226 79.627C78.1467 81.8832 70.1166 77.0308 67.2023 68.7787C64.2879 60.5266 67.6053 51.9963 74.5812 49.7092Z" fill="#4D3312"/>
<path fill-rule="evenodd" clip-rule="evenodd" d="M64.5669 61.3302C64.5669 61.3302 44.3834 62.6901 31.4857 70.7877C26.3391 74.002 20.8824 79.7816 19.7352 85.6539C14.0305 114.49 10 135.043 10 135.043C10 135.043 23.2077 139.154 33.439 142.337L37.5935 131.983C37.5935 131.983 39.7018 140.823 41.097 150.96C41.841 156.431 35.6403 161.407 33.2219 167.279C31.1447 172.286 29.0364 177.849 27.7343 185.452C25.626 198.062 26.06 212.959 26.06 212.959C26.06 212.959 90.4862 223.035 114.018 207.52C114.018 207.52 115.94 194.199 115.227 186.812C114.514 179.425 106.794 159.892 105.43 152.753C104.066 145.613 105.43 114.49 105.43 114.49L111.445 135.043C111.445 135.043 129.799 140.019 133.985 127.1C133.985 127.1 123.257 72.8585 115.909 66.5844C108.624 60.3103 64.5669 61.3302 64.5669 61.3302Z" fill="#D20E32"/>
<path d="M100.779 172.441C100.779 172.441 75.0768 173.646 46.0881 169.288C46.0881 169.288 34.6787 194.694 37.252 258.022C39.7943 321.35 51.8238 451.314 54.2111 472.083C54.2111 472.083 62.3652 476.843 67.9459 473.01C68.2869 472.794 68.1009 447.605 68.1939 446.183C69.7751 423.343 75.7589 269.55 75.9759 260.711C76.1619 251.408 78.6112 473.845 78.6112 473.845C78.6112 473.845 88.8735 475.359 94.6403 473.814C94.6403 473.814 113.894 277.091 111.196 236.202C108.499 195.343 100.779 172.441 100.779 172.441Z" fill="#694939"/>
<mask id="mask0_2945_35473" style="mask-type:luminance" maskUnits="userSpaceOnUse" x="36" y="169" width="76" height="306">
<path d="M100.779 172.441C100.779 172.441 75.0768 173.646 46.0881 169.288C46.0881 169.288 34.6787 194.694 37.252 258.022C39.7943 321.35 51.8238 451.314 54.2111 472.083C54.2111 472.083 62.3652 476.843 67.9459 473.01C68.2869 472.794 68.1009 447.605 68.1939 446.183C69.7751 423.343 75.7589 269.55 75.9759 260.711C76.1619 251.408 78.6112 473.845 78.6112 473.845C78.6112 473.845 88.8735 475.359 94.6403 473.814C94.6403 473.814 113.894 277.091 111.196 236.202C108.499 195.343 100.779 172.441 100.779 172.441Z" fill="white"/>
</mask>
<g mask="url(#mask0_2945_35473)">
<path fill-rule="evenodd" clip-rule="evenodd" d="M44.0108 162.612C44.0108 162.612 36.3838 183.258 40.2593 183.289C93.4311 183.443 99.4768 170.803 109.274 174.944C119.071 179.086 62.6752 150.033 44.0108 162.612Z" fill="#544325"/>
</g>
<path fill-rule="evenodd" clip-rule="evenodd" d="M48.5382 63.9574C48.5382 63.9574 32.4161 99.5622 32.9742 114.212C33.5323 128.831 41.9033 146.263 34.8344 163.261C27.7655 180.229 18.2473 196.579 16.4181 235.058C14.5889 273.537 14.5889 273.537 14.5889 273.537C14.5889 273.537 112.282 299.963 133.52 273.537C133.52 273.537 121.986 183.011 114.639 169.443C114.639 169.443 105.244 143.512 106.919 125.864C108.593 108.216 93.9589 96.626 92.9668 83.3052C92.9668 83.3052 93.5869 67.4499 95.1371 62.0721C95.1371 62.0721 93.3079 61.2994 91.3236 61.794C91.3236 61.794 87.0141 86.7667 86.89 88.4975C86.766 90.2283 46.2129 91.4955 45.9028 87.7867C45.5928 84.0778 52.0726 63.2466 52.0726 63.2466C52.0726 63.2466 49.7783 63.0611 48.5382 63.9574Z" fill="#151318"/>
<path fill-rule="evenodd" clip-rule="evenodd" d="M40.8182 2.45261C40.8182 2.45261 62.6139 -2.987 70.675 7.11955C73.8374 11.1065 97.9274 41.1171 76.2247 58.6104C74.3334 60.1249 69.0938 51.5328 68.2257 49.3384C66.4274 44.7023 64.1021 54.8398 64.1021 54.8398C64.1021 54.8398 63.389 59.1977 59.2965 59.7849C41.2212 62.412 36.8497 47.6694 33.9353 29.4652C31.0519 11.2611 32.9122 4.86335 40.8182 2.45261Z" fill="#352727"/>
<path d="M73.2173 47.0823L83.6036 61.9485C83.6036 61.9485 87.3241 74.6203 73.3413 77.5256C63.5751 79.5654 59.7616 71.5914 59.3275 69.6443L57.4053 49.8948L73.2173 47.0823Z" fill="#F0C1C1"/>
<mask id="mask1_2945_35473" style="mask-type:luminance" maskUnits="userSpaceOnUse" x="57" y="47" width="28" height="31">
<path d="M73.2173 47.0823L83.6036 61.9485C83.6036 61.9485 87.3241 74.6203 73.3413 77.5256C63.5751 79.5654 59.7616 71.5914 59.3275 69.6443L57.4053 49.8948L73.2173 47.0823Z" fill="white"/>
</mask>
<g mask="url(#mask1_2945_35473)">
<path fill-rule="evenodd" clip-rule="evenodd" d="M73.217 47.0823L84.8435 61.1449C84.8435 61.1449 54.1806 64.9465 53.0645 51.0384L73.217 47.0823Z" fill="#EDABAB"/>
</g>
<path fill-rule="evenodd" clip-rule="evenodd" d="M40.2594 13.95C40.2594 13.95 34.8027 25.3237 43.6078 41.3026C52.4129 57.2814 57.3425 60.3412 69.3721 51.5018C81.4016 42.6316 77.6501 31.536 73.2476 23.562C71.2943 20.0695 61.5281 21.244 55.4203 18.5242C47.6693 15.0008 43.2357 8.44853 40.2594 13.95Z" fill="#FFC8CC"/>
<path fill-rule="evenodd" clip-rule="evenodd" d="M48.6312 25.7874C48.0421 25.8183 46.5539 25.8183 45.9958 25.9419C43.0195 26.4673 41.9033 28.569 41.5933 29.7434C41.5313 29.9289 41.6553 30.1143 41.8413 30.1761C42.0273 30.2379 42.2444 30.1143 42.2754 29.9289C42.5544 28.909 43.5155 27.0854 46.1199 26.6527C46.6779 26.56 48.1041 26.56 48.6622 26.5291C48.8482 26.5291 49.0032 26.3437 49.0032 26.1582C49.0032 25.9419 48.8172 25.7874 48.6312 25.7874Z" fill="#4C3B3B"/>
<path fill-rule="evenodd" clip-rule="evenodd" d="M64.9393 28.7853C62.955 29.4961 61.7769 31.0415 62.335 32.2777C62.862 33.4831 64.9083 33.8849 66.8925 33.174C68.8768 32.4632 70.0549 30.9178 69.4969 29.6816C68.9698 28.4762 66.9235 28.0744 64.9393 28.7853Z" fill="#CC473F"/>
<path fill-rule="evenodd" clip-rule="evenodd" d="M47.4837 34.534C45.4994 35.214 44.3213 36.7593 44.8173 37.9956C45.3444 39.201 47.3597 39.6336 49.3749 38.9537C51.3592 38.2737 52.5683 36.7284 52.0413 35.4921C51.4832 34.2868 49.4679 33.8541 47.4837 34.534Z" fill="#CC473F"/>
<path fill-rule="evenodd" clip-rule="evenodd" d="M55.1111 31.845C55.4831 31.6286 59.6067 37.9955 57.2504 40.2207C54.8941 42.446 54.739 32.0613 55.1111 31.845Z" fill="#B24B4B"/>
<path fill-rule="evenodd" clip-rule="evenodd" d="M56.6609 23.7474C57.0019 23.5929 57.405 23.1602 57.746 22.9748C58.3351 22.6348 59.1102 22.3257 59.7923 22.2021C60.3193 22.1094 60.9084 22.2021 61.4665 22.2639C62.1176 22.3257 62.7686 22.3875 63.3577 22.2021C63.5437 22.1403 63.6678 21.9548 63.6057 21.7694C63.5437 21.5839 63.3577 21.4912 63.1407 21.553C62.6446 21.7076 62.0866 21.6458 61.5595 21.5839C60.9084 21.5221 60.2883 21.4294 59.6993 21.5221C58.9242 21.6458 58.056 21.9857 57.374 22.3566C57.0329 22.5421 56.6609 22.9439 56.3198 23.0984C56.1338 23.1911 56.0718 23.3766 56.1648 23.562C56.2578 23.7783 56.4748 23.8402 56.6609 23.7474Z" fill="#4C3B3B"/>
<path fill-rule="evenodd" clip-rule="evenodd" d="M44.4141 33.885C44.4141 33.885 45.7782 29.7435 49.9018 32.0924C49.9018 32.1233 45.7162 28.2599 44.4141 33.885Z" fill="#4D3312"/>
<path fill-rule="evenodd" clip-rule="evenodd" d="M60.9082 28.2289C60.9082 28.2289 62.2724 24.0874 66.3959 26.4363C66.3959 26.4363 62.2104 22.5729 60.9082 28.2289Z" fill="#4D3312"/>
<path fill-rule="evenodd" clip-rule="evenodd" d="M57.3428 43.7443L63.0785 41.4263C63.1095 41.4263 63.5746 49.4312 57.3428 43.7443Z" fill="white"/>
<path fill-rule="evenodd" clip-rule="evenodd" d="M83.4481 60.2486C83.4481 60.2486 73.7439 69.2425 80.5648 76.722C87.3856 84.2015 89.4009 93.2263 85.7734 97.3987C85.7734 97.3987 101.213 85.1596 98.8881 74.5585C96.5318 63.8956 88.4708 56.8488 83.4481 60.2486Z" fill="#352727"/>
<path fill-rule="evenodd" clip-rule="evenodd" d="M82.9521 60.7121C82.9521 60.7121 84.9364 57.7759 90.1141 60.2794L90.4241 60.8048C90.4551 60.8048 87.2307 59.3831 82.9521 60.7121Z" fill="#B24B4B"/>
<path fill-rule="evenodd" clip-rule="evenodd" d="M112.964 130.531L91.1064 63.0609L100.16 61.7319C100.16 61.7319 139.969 123.36 131.536 133.992C122.42 145.49 112.964 130.531 112.964 130.531Z" fill="#FDC7CB"/>
<path fill-rule="evenodd" clip-rule="evenodd" d="M92.7809 96.7188H75.1396V99.8713H92.7809V96.7188Z" fill="white"/>
<path fill-rule="evenodd" clip-rule="evenodd" d="M92.3419 24.6701C92.3419 24.6701 90.795 24.8814 90.8567 26.7041C90.9184 28.5269 91.7325 40.0431 91.7325 40.0431C91.7325 40.0431 89.6965 36.9861 88.345 37.7506C86.9625 38.5156 83.2727 40.3702 83.2727 40.3702C83.2727 40.3702 81.0504 42.8184 81.3739 43.6167C81.6974 44.415 83.3657 44.0471 84.3384 42.8871C85.3106 41.6962 88.2472 41.1525 88.2472 41.1525C88.2472 41.1525 91.5084 45.1473 91.0741 46.9783C90.6398 48.8093 88.8358 50.3232 87.2165 49.9176C85.6283 49.5114 82.2937 44.8378 82.2937 44.8378C82.2937 44.8378 80.4101 41.6236 79.1294 42.9124C77.8488 44.2012 80.3675 48.3012 81.6361 49.9801C82.9047 51.6589 84.6458 55.6174 86.5789 58.0888C88.5425 60.5289 92.1915 63.6208 92.836 65.0628C93.4804 66.5048 95.6978 69.2807 95.6978 69.2807L102.306 65.8008C102.306 65.8008 99.5661 61.4572 97.6698 51.9683C96.2125 44.6049 97.4126 44.0593 97.4126 44.0593L101.172 33.4556C101.172 33.4556 100.101 32.4535 99.1975 34.0451C98.2941 35.6367 96.7393 39.0629 96.7393 39.0629C96.7393 39.0629 96.511 34.7083 97.1948 32.9658C97.8787 31.2233 99.0184 27.0931 97.7128 26.8985C96.4382 26.7035 96.0865 27.9149 95.5855 29.4688C95.0845 31.0228 94.347 33.2607 94.347 33.2607C94.347 33.2607 93.3891 24.2507 92.3419 24.6701Z" fill="#FFC8CC"/>
<path fill-rule="evenodd" clip-rule="evenodd" d="M30.3077 141.379C30.3077 141.379 29.7186 142.245 30.3077 149.384C30.5247 151.795 65.2491 176.088 65.2491 176.088L62.4898 186.411C62.4898 186.411 11.4883 160.82 11.4883 149.384C11.4883 142.646 12.9455 135.754 12.9455 135.754L30.3077 141.379Z" fill="#FDC7CB"/>
<path fill-rule="evenodd" clip-rule="evenodd" d="M61.7767 174.048C61.7767 174.048 71.2639 177.973 74.3643 179.858C77.4647 181.744 86.3008 193.581 86.3008 193.581C86.3008 193.581 84.9366 194.385 82.9214 192.314C80.9061 190.243 75.0774 184.247 75.0774 184.247L81.8052 195.744C81.8052 195.744 81.5882 197.259 80.5031 195.93C79.4179 194.601 72.8451 186.627 72.8451 186.627L78.7048 196.208C78.7048 196.208 78.0848 197.784 77.0926 196.455C76.1005 195.126 71.0469 188.45 71.0469 188.45L74.2713 195.405C74.2713 195.405 73.8682 196.548 72.9691 195.59C72.07 194.632 68.7216 190.027 67.2644 189.625C65.8382 189.223 60.9396 186.287 59.2034 184.34C57.4361 182.455 61.7767 174.048 61.7767 174.048Z" fill="#FDC7CB"/>
</g>
<rect x="37" y="111" width="62" height="7" fill="url(#pattern0)"/>
</g>
<defs>
<pattern id="pattern0" patternContentUnits="objectBoundingBox" width="1" height="1">
<use xlink:href="#image0_2945_35473" transform="scale(0.000263922 0.00257732)"/>
</pattern>
<clipPath id="clip0_2945_35473">
<rect width="314" height="215" fill="white"/>
</clipPath>
<clipPath id="clip1_2945_35473">
<rect width="126" height="487" fill="white" transform="translate(10 1)"/>
</clipPath>
</defs>
</svg>
