<svg width="146" height="146" viewBox="0 0 146 146" fill="none" xmlns="http://www.w3.org/2000/svg">
<g clip-path="url(#clip0_221_82)">
<mask id="mask0_221_82" style="mask-type:luminance" maskUnits="userSpaceOnUse" x="0" y="0" width="146" height="146">
<path d="M146 0H0V146H146V0Z" fill="white"/>
</mask>
<g mask="url(#mask0_221_82)">
<path d="M109.5 87.054C104.464 89.7441 96.7676 91.2503 88.208 91.2503C79.6483 91.2503 71.9521 89.7441 66.9163 87.054V97.3337C66.9163 99.8779 76.3522 103.417 88.208 103.417C100.064 103.417 109.5 99.8779 109.5 97.3337V87.054ZM60.833 79.0837C60.833 71.5523 73.1918 66.917 88.208 66.917C103.224 66.917 115.583 71.5523 115.583 79.0837V115.584C115.583 123.115 103.224 127.75 88.208 127.75C73.1918 127.75 60.833 123.115 60.833 115.584V79.0837ZM109.5 105.304C104.464 107.994 96.7676 109.5 88.208 109.5C79.6483 109.5 71.9521 107.994 66.9163 105.304V115.584C66.9163 118.128 76.3522 121.667 88.208 121.667C100.064 121.667 109.5 118.128 109.5 115.584V105.304ZM72.9996 32.3068C67.9648 34.9959 60.2699 36.5003 51.708 36.5003C43.146 36.5003 35.4511 34.9959 30.4163 32.3068V42.5837C30.4163 45.1279 39.8522 48.667 51.708 48.667C63.5637 48.667 72.9996 45.1279 72.9996 42.5837V32.3068ZM79.083 24.3337V57.792C79.083 59.4719 77.7212 60.8337 76.0413 60.8337C74.3614 60.8337 72.9996 59.4719 72.9996 57.792V50.554C67.9638 53.2441 60.2676 54.7503 51.708 54.7503C43.1483 54.7503 35.4521 53.2441 30.4163 50.554V60.8337C30.4163 63.3779 39.8522 66.917 51.708 66.917C53.3878 66.917 54.7496 68.2788 54.7496 69.9587C54.7496 71.6385 53.3878 73.0003 51.708 73.0003C43.1483 73.0003 35.4521 71.4941 30.4163 68.804V79.0837C30.4163 81.6279 39.8522 85.167 51.708 85.167C53.3878 85.167 54.7496 86.5288 54.7496 88.2087C54.7496 89.8885 53.3878 91.2503 51.708 91.2503C43.1483 91.2503 35.4521 89.7441 30.4163 87.054V97.3337C30.4163 99.8779 39.8522 103.417 51.708 103.417C53.3878 103.417 54.7496 104.779 54.7496 106.459C54.7496 108.139 53.3878 109.5 51.708 109.5C43.1483 109.5 35.4521 107.994 30.4163 105.304V115.584C30.4163 118.128 39.8522 121.667 51.708 121.667C53.3878 121.667 54.7496 123.029 54.7496 124.709C54.7496 126.389 53.3878 127.75 51.708 127.75C36.6918 127.75 24.333 123.115 24.333 115.584V24.3337C24.333 16.798 36.6859 12.167 51.708 12.167C66.7301 12.167 79.083 16.798 79.083 24.3337ZM72.9996 24.3337C72.9996 21.7858 63.569 18.2503 51.708 18.2503C39.8469 18.2503 30.4163 21.7858 30.4163 24.3337C30.4163 26.8815 39.8469 30.417 51.708 30.417C63.569 30.417 72.9996 26.8815 72.9996 24.3337ZM109.5 79.0837C109.5 76.5394 100.064 73.0003 88.208 73.0003C76.3522 73.0003 66.9163 76.5394 66.9163 79.0837C66.9163 81.6279 76.3522 85.167 88.208 85.167C100.064 85.167 109.5 81.6279 109.5 79.0837Z" fill="#CCA270"/>
</g>
</g>
<defs>
<clipPath id="clip0_221_82">
<rect width="146" height="146" fill="white"/>
</clipPath>
</defs>
</svg>
