<svg width="146" height="146" viewBox="0 0 146 146" fill="none" xmlns="http://www.w3.org/2000/svg">
<mask id="mask0_221_88" style="mask-type:luminance" maskUnits="userSpaceOnUse" x="13" y="13" width="120" height="120">
<path d="M133 13H13V133H133V13Z" fill="white"/>
</mask>
<g mask="url(#mask0_221_88)">
<path d="M30.3419 13.2578C30.0372 13.3984 29.5684 13.6797 29.3106 13.8906C28.6309 14.5 13.5841 37.1641 13.2794 38.0547C12.8809 39.1563 12.8809 111.109 13.2559 112.492C13.9122 114.813 16.2325 117.109 18.6231 117.742C19.42 117.953 25.9122 118 45.1544 117.953C70.4669 117.883 70.631 117.883 71.2638 117.391C72.506 116.477 72.881 115.727 72.881 114.25C72.881 112.773 72.506 112.023 71.2638 111.109C70.631 110.617 70.4669 110.617 45.5528 110.547L20.4981 110.5V76.75V43H35.4981H50.4747L50.545 53.0547C50.6153 62.8047 50.6388 63.1328 51.1075 63.7656C51.8341 64.75 52.6778 65.2891 53.7091 65.4297C54.4825 65.5234 55.6778 65.2188 60.0841 63.7422L65.4981 61.9375L70.9122 63.7422C75.3185 65.2188 76.5138 65.5234 77.2872 65.4297C78.3185 65.2891 79.1622 64.75 79.8888 63.7656C80.3575 63.1328 80.381 62.8047 80.4513 53.0547L80.5216 43H95.4982H110.498L110.545 56.8047C110.615 70.3516 110.615 70.6328 111.108 71.2656C112.022 72.5078 112.772 72.8828 114.248 72.8828C115.725 72.8828 116.475 72.5078 117.389 71.2656C117.881 70.6328 117.881 70.3516 117.951 54.8828C117.998 43.6094 117.951 38.875 117.74 38.1953C117.412 37 102.178 14.2422 101.287 13.5859C100.631 13.1172 100.443 13.1172 65.7794 13.0703C43.1153 13.0469 30.7169 13.1172 30.3419 13.2578ZM53.4278 21.25C53.3575 21.6719 52.795 25.0234 52.1856 28.7031L51.0606 35.3828L37.42 35.4531L23.7794 35.5L28.7481 28L33.7403 20.5234L43.6544 20.5H53.5685L53.4278 21.25ZM70.9356 27.2969C71.545 30.9766 72.1075 34.3281 72.1778 34.7266L72.3185 35.5H65.4981H58.6544L58.795 34.8438C58.8653 34.4922 59.4044 31.2578 60.0138 27.6484C60.5997 24.0391 61.1153 20.9453 61.1622 20.7813C61.256 20.5469 62.2403 20.5 65.545 20.5469L69.8106 20.6172L70.9356 27.2969ZM102.248 28L107.217 35.5L93.5763 35.4531L79.9357 35.3828L78.8106 28.7031C78.2013 25.0234 77.6388 21.6719 77.5685 21.25L77.4278 20.5H87.3419L97.256 20.5234L102.248 28ZM72.9981 49.7734V56.5703L69.5528 55.3984C67.6544 54.7656 65.8263 54.25 65.4981 54.25C65.17 54.25 63.3419 54.7656 61.4435 55.3984L57.9981 56.5703V49.7734V43H65.4981H72.9981V49.7734Z" fill="#CCA270"/>
<path d="M102.295 80.875C96.459 81.9297 90.7168 85.1641 87.0137 89.4766C78.3184 99.5782 78.3184 113.922 87.0137 124.023C91.7715 129.555 99.3418 133 106.748 133C121.139 133 132.998 121.141 132.998 106.75C132.998 94.0235 123.717 83.0547 111.084 80.875C108.553 80.4297 104.709 80.4297 102.295 80.875ZM111.623 88.7032C118.209 90.5547 123.107 95.5703 124.936 102.297C125.568 104.617 125.521 109.117 124.842 111.508C122.92 118.211 117.975 123.086 111.201 124.938C109.092 125.523 104.404 125.523 102.295 124.938C98.9668 124.047 96.2715 122.523 93.9043 120.25C91.2793 117.742 89.6621 115.047 88.6543 111.508C87.9746 109.117 87.9277 104.617 88.5605 102.297C89.4512 98.9688 90.9746 96.2735 93.248 93.9063C96.2012 90.836 99.5996 89.0078 103.889 88.2344C105.646 87.9063 109.701 88.1641 111.623 88.7032Z" fill="#CCA270"/>
<path d="M105.225 95.8282C104.358 96.2266 103.584 97.0469 103.256 97.9141C102.858 98.9454 102.928 107.289 103.327 108.227C103.514 108.648 105.647 110.945 108.061 113.359C112.819 118.07 113.147 118.258 115.116 117.883C116.264 117.672 117.67 116.266 117.881 115.117C118.256 113.195 117.998 112.773 114.131 108.859L110.522 105.227L110.452 101.547C110.381 97.5625 110.264 97.2344 108.811 96.1329C108.014 95.5469 106.162 95.3829 105.225 95.8282Z" fill="#CCA270"/>
</g>
</svg>
